<?xml version="1.0" standalone="yes"?>

<svg version="1.1" viewBox="0.0 0.0 960.0 720.0" fill="none" stroke="none" stroke-linecap="square" stroke-miterlimit="10" xmlns="http://www.w3.org/2000/svg" xmlns:xlink="http://www.w3.org/1999/xlink"><clipPath id="p.0"><path d="m0 0l960.0 0l0 720.0l-960.0 0l0 -720.0z" clip-rule="nonzero"></path></clipPath><g clip-path="url(#p.0)"><path fill="#000000" fill-opacity="0.0" d="m0 0l960.0 0l0 720.0l-960.0 0z" fill-rule="nonzero"></path><path fill="#fce5cd" d="m2.7257218 75.63517l208.53543 0l0 94.3937l-208.53543 0z" fill-rule="nonzero"></path><path stroke="#000000" stroke-width="4.0" stroke-linejoin="round" stroke-linecap="butt" d="m2.7257218 75.63517l208.53543 0l0 94.3937l-208.53543 0z" fill-rule="nonzero"></path><path fill="#000000" d="m41.313766 125.32265l3.78125 1.203125q-0.859375 3.15625 -2.890625 4.703125q-2.015625 1.53125 -5.140625 1.53125q-3.84375 0 -6.328127 -2.625q-2.46875 -2.640625 -2.46875 -7.203125q0 -4.8125 2.484375 -7.484375q2.500002 -2.671875 6.562502 -2.671875q3.546875 0 5.75 2.09375q1.328125 1.234375 1.984375 3.5625l-3.859375 0.921875q-0.34375 -1.5 -1.4375 -2.375q-1.078125 -0.875 -2.640625 -0.875q-2.15625 0 -3.5 1.546875q-1.328125 1.546875 -1.328125 5.0q0 3.65625 1.3125 5.21875q1.328125 1.5625 3.4375 1.5625q1.5625 0 2.671875 -0.984375q1.125 -1.0 1.609375 -3.125zm6.922165 7.109375l0 -19.328125l3.796875 0l7.921875 12.90625l0 -12.90625l3.625 0l0 19.328125l-3.921875 0l-7.796875 -12.609375l0 12.609375l-3.625 0zm19.18779 -19.328125l3.90625 0l0 10.46875q0 2.484375 0.140625 3.234375q0.25 1.1875 1.1875 1.90625q0.953125 0.71875 2.578125 0.71875q1.671875 0 2.515625 -0.671875q0.84375 -0.6875 1.015625 -1.671875q0.171875 -1.0 0.171875 -3.296875l0 -10.6875l3.890625 0l0 10.15625q0 3.46875 -0.3125 4.90625q-0.3125 1.4375 -1.171875 2.4375q-0.84375 0.984375 -2.265625 1.578125q-1.421875 0.578125 -3.71875 0.578125q-2.765625 0 -4.203125 -0.640625q-1.421875 -0.640625 -2.265625 -1.65625q-0.828125 -1.03125 -1.078125 -2.140625q-0.390625 -1.671875 -0.390625 -4.90625l0 -10.3125zm25.6875 13.046875l3.796875 -0.375q0.34375 1.90625 1.390625 2.8125q1.0625 0.890625 2.828125 0.890625q1.890625 0 2.84375 -0.796875q0.953125 -0.796875 0.953125 -1.859375q0 -0.6875 -0.40625 -1.171875q-0.390625 -0.484375 -1.390625 -0.84375q-0.6875 -0.234375 -3.125 -0.84375q-3.140625 -0.765625 -4.40625 -1.90625q-1.78125 -1.59375 -1.78125 -3.890625q0 -1.46875 0.828125 -2.75q0.84375 -1.296875 2.421875 -1.96875q1.578125 -0.671875 3.8125 -0.671875q3.625 0 5.46875 1.59375q1.84375 1.59375 1.9375 4.265625l-3.90625 0.171875q-0.25 -1.5 -1.078125 -2.140625q-0.8125 -0.65625 -2.46875 -0.65625q-1.703125 0 -2.65625 0.6875q-0.625 0.453125 -0.625 1.203125q0 0.6875 0.578125 1.171875q0.734375 0.625 3.578125 1.296875q2.859375 0.671875 4.21875 1.390625q1.359375 0.71875 2.125 1.96875q0.78125 1.234375 0.78125 3.078125q0 1.65625 -0.921875 3.109375q-0.921875 1.453125 -2.609375 2.15625q-1.6875 0.703125 -4.203125 0.703125q-3.671875 0 -5.640625 -1.6875q-1.953125 -1.703125 -2.34375 -4.9375zm26.857635 1.828125l3.6875 0.609375q-0.703125 2.03125 -2.25 3.09375q-1.53125 1.0625 -3.84375 1.0625q-3.640625 0 -5.40625 -2.375q-1.375 -1.921875 -1.375 -4.828125q0 -3.484375 1.8125 -5.453125q1.828125 -1.96875 4.609375 -1.96875q3.125 0 4.921875 2.0625q1.8125 2.0625 1.734375 6.3125l-9.28125 0q0.03125 1.65625 0.890625 2.578125q0.859375 0.90625 2.140625 0.90625q0.875 0 1.46875 -0.46875q0.59375 -0.484375 0.890625 -1.53125zm0.203125 -3.75q-0.03125 -1.609375 -0.828125 -2.4375q-0.78125 -0.84375 -1.921875 -0.84375q-1.21875 0 -2.0 0.890625q-0.796875 0.875 -0.78125 2.390625l5.53125 0zm10.059311 8.203125l-3.703125 0l0 -14.0l3.4375 0l0 1.984375q0.890625 -1.40625 1.59375 -1.84375q0.703125 -0.453125 1.59375 -0.453125q1.265625 0 2.4375 0.6875l-1.140625 3.234375q-0.9375 -0.609375 -1.734375 -0.609375q-0.78125 0 -1.328125 0.4375q-0.53125 0.421875 -0.84375 1.546875q-0.3125 1.125 -0.3125 4.6875l0 4.328125zm10.670425 0l-5.640625 -14.0l3.890625 0l2.640625 7.140625l0.765625 2.390625q0.296875 -0.90625 0.375 -1.203125q0.1875 -0.59375 0.40625 -1.1875l2.65625 -7.140625l3.8125 0l-5.5625 14.0l-3.34375 0zm10.981186 -15.90625l0 -3.421875l3.703125 0l0 3.421875l-3.703125 0zm0 15.90625l0 -14.0l3.703125 0l0 14.0l-3.703125 0zm19.609085 -9.859375l-3.640625 0.65625q-0.1875 -1.09375 -0.84375 -1.640625q-0.65625 -0.5625 -1.6875 -0.5625q-1.390625 0 -2.21875 0.953125q-0.8125 0.953125 -0.8125 3.203125q0 2.484375 0.828125 3.515625q0.84375 1.03125 2.25 1.03125q1.0625 0 1.734375 -0.59375q0.671875 -0.609375 0.9375 -2.0625l3.640625 0.609375q-0.5625 2.515625 -2.171875 3.796875q-1.609375 1.265625 -4.3125 1.265625q-3.078125 0 -4.90625 -1.9375q-1.8125 -1.9375 -1.8125 -5.359375q0 -3.46875 1.828125 -5.390625q1.828125 -1.9375 4.953125 -1.9375q2.5625 0 4.0625 1.109375q1.515625 1.09375 2.171875 3.34375zm10.731186 5.40625l3.6875 0.609375q-0.703125 2.03125 -2.25 3.09375q-1.53125 1.0625 -3.84375 1.0625q-3.640625 0 -5.40625 -2.375q-1.375 -1.921875 -1.375 -4.828125q0 -3.484375 1.8125 -5.453125q1.828125 -1.96875 4.609375 -1.96875q3.125 0 4.921875 2.0625q1.8125 2.0625 1.734375 6.3125l-9.28125 0q0.03125 1.65625 0.890625 2.578125q0.859375 0.90625 2.140625 0.90625q0.875 0 1.46875 -0.46875q0.59375 -0.484375 0.890625 -1.53125zm0.203125 -3.75q-0.03125 -1.609375 -0.828125 -2.4375q-0.78125 -0.84375 -1.921875 -0.84375q-1.21875 0 -2.0 0.890625q-0.796875 0.875 -0.78125 2.390625l5.53125 0z" fill-rule="nonzero"></path><path fill="#fce5cd" d="m571.1011 75.63517l208.5354 0l0 94.3937l-208.5354 0z" fill-rule="nonzero"></path><path stroke="#000000" stroke-width="4.0" stroke-linejoin="round" stroke-linecap="butt" d="m571.1011 75.63517l208.5354 0l0 94.3937l-208.5354 0z" fill-rule="nonzero"></path><path fill="#000000" d="m606.76056 125.32265l3.78125 1.203125q-0.859375 3.15625 -2.890625 4.703125q-2.015625 1.53125 -5.140625 1.53125q-3.84375 0 -6.328125 -2.625q-2.46875 -2.640625 -2.46875 -7.203125q0 -4.8125 2.484375 -7.484375q2.5 -2.671875 6.5625 -2.671875q3.546875 0 5.75 2.09375q1.328125 1.234375 1.984375 3.5625l-3.859375 0.921875q-0.34375 -1.5 -1.4375 -2.375q-1.078125 -0.875 -2.640625 -0.875q-2.15625 0 -3.5 1.546875q-1.328125 1.546875 -1.328125 5.0q0 3.65625 1.3125 5.21875q1.328125 1.5625 3.4375 1.5625q1.5625 0 2.671875 -0.984375q1.125 -1.0 1.609375 -3.125zm6.92218 7.109375l0 -19.328125l3.796875 0l7.921875 12.90625l0 -12.90625l3.625 0l0 19.328125l-3.921875 0l-7.796875 -12.609375l0 12.609375l-3.625 0zm19.187744 -19.328125l3.90625 0l0 10.46875q0 2.484375 0.140625 3.234375q0.25 1.1875 1.1875 1.90625q0.953125 0.71875 2.578125 0.71875q1.671875 0 2.515625 -0.671875q0.84375 -0.6875 1.015625 -1.671875q0.171875 -1.0 0.171875 -3.296875l0 -10.6875l3.890625 0l0 10.15625q0 3.46875 -0.3125 4.90625q-0.3125 1.4375 -1.171875 2.4375q-0.84375 0.984375 -2.265625 1.578125q-1.421875 0.578125 -3.71875 0.578125q-2.765625 0 -4.203125 -0.640625q-1.421875 -0.640625 -2.265625 -1.65625q-0.828125 -1.03125 -1.078125 -2.140625q-0.390625 -1.671875 -0.390625 -4.90625l0 -10.3125zm26.65625 0l3.90625 0l0 10.46875q0 2.484375 0.140625 3.234375q0.25 1.1875 1.1875 1.90625q0.953125 0.71875 2.578125 0.71875q1.671875 0 2.515625 -0.671875q0.84375 -0.6875 1.015625 -1.671875q0.171875 -1.0 0.171875 -3.296875l0 -10.6875l3.890625 0l0 10.15625q0 3.46875 -0.3125 4.90625q-0.3125 1.4375 -1.171875 2.4375q-0.84375 0.984375 -2.265625 1.578125q-1.421875 0.578125 -3.71875 0.578125q-2.765625 0 -4.203125 -0.640625q-1.421875 -0.640625 -2.265625 -1.65625q-0.828125 -1.03125 -1.078125 -2.140625q-0.390625 -1.671875 -0.390625 -4.90625l0 -10.3125zm19.14093 5.328125l3.453125 0l0 2.0625q0.671875 -1.0625 1.8125 -1.71875q1.15625 -0.65625 2.5625 -0.65625q2.4375 0 4.125 1.90625q1.703125 1.90625 1.703125 5.328125q0 3.5 -1.71875 5.453125q-1.703125 1.9375 -4.140625 1.9375q-1.15625 0 -2.109375 -0.453125q-0.9375 -0.46875 -1.984375 -1.59375l0 7.0625l-3.703125 0l0 -19.328125zm3.671875 6.765625q0 2.359375 0.9375 3.484375q0.9375 1.125 2.28125 1.125q1.28125 0 2.140625 -1.03125q0.859375 -1.03125 0.859375 -3.390625q0 -2.203125 -0.890625 -3.265625q-0.875 -1.078125 -2.171875 -1.078125q-1.359375 0 -2.265625 1.046875q-0.890625 1.046875 -0.890625 3.109375zm25.563965 7.234375l-3.4375 0l0 -2.0625q-0.859375 1.203125 -2.03125 1.796875q-1.171875 0.578125 -2.34375 0.578125q-2.421875 0 -4.140625 -1.9375q-1.71875 -1.953125 -1.71875 -5.421875q0 -3.5625 1.671875 -5.40625q1.671875 -1.859375 4.234375 -1.859375q2.34375 0 4.0625 1.953125l0 -6.96875l3.703125 0l0 19.328125zm-9.890625 -7.296875q0 2.234375 0.625 3.234375q0.890625 1.453125 2.5 1.453125q1.28125 0 2.171875 -1.078125q0.90625 -1.09375 0.90625 -3.265625q0 -2.40625 -0.875 -3.46875q-0.875 -1.0625 -2.234375 -1.0625q-1.3125 0 -2.203125 1.046875q-0.890625 1.046875 -0.890625 3.140625zm16.095215 -2.4375l-3.359375 -0.609375q0.5625 -2.015625 1.953125 -2.984375q1.390625 -0.984375 4.109375 -0.984375q2.484375 0 3.6875 0.59375q1.21875 0.578125 1.703125 1.484375q0.5 0.890625 0.5 3.3125l-0.03125 4.328125q0 1.84375 0.171875 2.71875q0.1875 0.875 0.671875 1.875l-3.671875 0q-0.140625 -0.375 -0.359375 -1.09375q-0.078125 -0.328125 -0.125 -0.4375q-0.953125 0.921875 -2.03125 1.390625q-1.078125 0.453125 -2.3125 0.453125q-2.15625 0 -3.40625 -1.171875q-1.234375 -1.171875 -1.234375 -2.96875q0 -1.1875 0.5625 -2.109375q0.5625 -0.9375 1.578125 -1.421875q1.03125 -0.5 2.953125 -0.875q2.59375 -0.484375 3.59375 -0.90625l0 -0.359375q0 -1.078125 -0.53125 -1.53125q-0.515625 -0.453125 -1.984375 -0.453125q-0.984375 0 -1.546875 0.390625q-0.546875 0.390625 -0.890625 1.359375zm4.953125 3.015625q-0.703125 0.234375 -2.25 0.5625q-1.546875 0.328125 -2.015625 0.640625q-0.71875 0.515625 -0.71875 1.3125q0 0.78125 0.578125 1.34375q0.578125 0.5625 1.46875 0.5625q1.0 0 1.921875 -0.65625q0.671875 -0.5 0.875 -1.21875q0.140625 -0.484375 0.140625 -1.8125l0 -0.734375zm13.528015 -7.28125l0 2.953125l-2.53125 0l0 5.640625q0 1.71875 0.0625 2.0q0.078125 0.28125 0.328125 0.46875q0.265625 0.1875 0.640625 0.1875q0.515625 0 1.484375 -0.359375l0.3125 2.875q-1.28125 0.546875 -2.921875 0.546875q-1.0 0 -1.8125 -0.328125q-0.796875 -0.34375 -1.171875 -0.875q-0.375 -0.53125 -0.515625 -1.4375q-0.125 -0.65625 -0.125 -2.609375l0 -6.109375l-1.703125 0l0 -2.953125l1.703125 0l0 -2.78125l3.71875 -2.15625l0 4.9375l2.53125 0zm10.56427 9.546875l3.6875 0.609375q-0.703125 2.03125 -2.25 3.09375q-1.53125 1.0625 -3.84375 1.0625q-3.640625 0 -5.40625 -2.375q-1.375 -1.921875 -1.375 -4.828125q0 -3.484375 1.8125 -5.453125q1.828125 -1.96875 4.609375 -1.96875q3.125 0 4.921875 2.0625q1.8125 2.0625 1.734375 6.3125l-9.28125 0q0.03125 1.65625 0.890625 2.578125q0.859375 0.90625 2.140625 0.90625q0.875 0 1.46875 -0.46875q0.59375 -0.484375 0.890625 -1.53125zm0.203125 -3.75q-0.03125 -1.609375 -0.828125 -2.4375q-0.78125 -0.84375 -1.921875 -0.84375q-1.21875 0 -2.0 0.890625q-0.796875 0.875 -0.78125 2.390625l5.53125 0zm10.059326 8.203125l-3.703125 0l0 -14.0l3.4375 0l0 1.984375q0.890625 -1.40625 1.59375 -1.84375q0.703125 -0.453125 1.59375 -0.453125q1.265625 0 2.4375 0.6875l-1.140625 3.234375q-0.9375 -0.609375 -1.734375 -0.609375q-0.78125 0 -1.328125 0.4375q-0.53125 0.421875 -0.84375 1.546875q-0.3125 1.125 -0.3125 4.6875l0 4.328125z" fill-rule="nonzero"></path><path fill="#cfe2f3" d="m547.1011 395.979l208.5354 0l0 94.39371l-208.5354 0z" fill-rule="nonzero"></path><path stroke="#000000" stroke-width="2.0" stroke-linejoin="round" stroke-linecap="butt" d="m547.1011 395.979l208.5354 0l0 94.39371l-208.5354 0z" fill-rule="nonzero"></path><path fill="#000000" fill-opacity="0.0" d="m211.26115 122.832016l359.84253 0" fill-rule="nonzero"></path><path stroke="#ff0000" stroke-width="3.0" stroke-linejoin="round" stroke-linecap="butt" d="m211.26115 122.83202l341.84253 0" fill-rule="evenodd"></path><path fill="#ff0000" stroke="#ff0000" stroke-width="3.0" stroke-linecap="butt" d="m553.1037 127.78722l13.614258 -4.9551926l-13.614258 -4.9552z" fill-rule="evenodd"></path><path fill="#000000" fill-opacity="0.0" d="m211.26115 122.832016l335.84253 320.34644" fill-rule="nonzero"></path><path stroke="#ff0000" stroke-width="3.0" stroke-linejoin="round" stroke-linecap="butt" d="m211.26115 122.83202l322.81763 307.92258" fill-rule="evenodd"></path><path fill="#ff0000" stroke="#ff0000" stroke-width="3.0" stroke-linecap="butt" d="m530.6586 434.34018l13.271545 5.8112183l-6.4312134 -12.982391z" fill-rule="evenodd"></path><path fill="#f4cccc" d="m563.1011 411.979l208.5354 0l0 94.39371l-208.5354 0z" fill-rule="nonzero"></path><path stroke="#000000" stroke-width="2.0" stroke-linejoin="round" stroke-linecap="butt" d="m563.1011 411.979l208.5354 0l0 94.39371l-208.5354 0z" fill-rule="nonzero"></path><path fill="#cfe2f3" d="m579.1011 427.979l208.5354 0l0 94.39368l-208.5354 0z" fill-rule="nonzero"></path><path stroke="#000000" stroke-width="2.0" stroke-linejoin="round" stroke-linecap="butt" d="m579.1011 427.979l208.5354 0l0 94.39368l-208.5354 0z" fill-rule="nonzero"></path><path fill="#cfe2f3" d="m595.1011 443.979l208.5354 0l0 94.39368l-208.5354 0z" fill-rule="nonzero"></path><path stroke="#000000" stroke-width="2.0" stroke-linejoin="round" stroke-linecap="butt" d="m595.1011 443.979l208.5354 0l0 94.39368l-208.5354 0z" fill-rule="nonzero"></path><path fill="#000000" d="m647.79816 493.66647l3.78125 1.203125q-0.859375 3.15625 -2.890625 4.703125q-2.015625 1.53125 -5.140625 1.53125q-3.84375 0 -6.328125 -2.625q-2.46875 -2.640625 -2.46875 -7.203125q0 -4.8125 2.484375 -7.484375q2.5 -2.671875 6.5625 -2.671875q3.546875 0 5.75 2.09375q1.328125 1.234375 1.984375 3.5625l-3.859375 0.921875q-0.34375 -1.5 -1.4375 -2.375q-1.078125 -0.875 -2.640625 -0.875q-2.15625 0 -3.5 1.546875q-1.328125 1.546875 -1.328125 5.0q0 3.65625 1.3125 5.21875q1.328125 1.5625 3.4375 1.5625q1.5625 0 2.671875 -0.984375q1.125 -1.0 1.609375 -3.125zm6.92218 7.109375l0 -19.328125l3.796875 0l7.921875 12.90625l0 -12.90625l3.625 0l0 19.328125l-3.921875 0l-7.796875 -12.609375l0 12.609375l-3.625 0zm19.187805 -19.328125l3.90625 0l0 10.46875q0 2.484375 0.140625 3.234375q0.25 1.1875 1.1875 1.90625q0.953125 0.71875 2.578125 0.71875q1.671875 0 2.515625 -0.671875q0.84375 -0.6875 1.015625 -1.671875q0.171875 -1.0 0.171875 -3.296875l0 -10.6875l3.890625 0l0 10.15625q0 3.46875 -0.3125 4.90625q-0.3125 1.4375 -1.171875 2.4375q-0.84375 0.984375 -2.265625 1.578125q-1.421875 0.578125 -3.71875 0.578125q-2.765625 0 -4.203125 -0.640625q-1.421875 -0.640625 -2.265625 -1.65625q-0.828125 -1.03125 -1.078125 -2.140625q-0.390625 -1.671875 -0.390625 -4.90625l0 -10.3125zm44.109375 19.328125l-4.25 0l-1.6875 -4.390625l-7.71875 0l-1.59375 4.390625l-4.140625 0l7.53125 -19.328125l4.125 0l7.734375 19.328125zm-7.1875 -7.640625l-2.65625 -7.171875l-2.609375 7.171875l5.265625 0zm8.875244 -6.359375l3.453125 0l0 2.0625q0.671875 -1.0625 1.8125 -1.71875q1.15625 -0.65625 2.5625 -0.65625q2.4375 0 4.125 1.90625q1.703125 1.90625 1.703125 5.328125q0 3.5 -1.71875 5.453125q-1.703125 1.9375 -4.140625 1.9375q-1.15625 0 -2.109375 -0.453125q-0.9375 -0.46875 -1.984375 -1.59375l0 7.0625l-3.703125 0l0 -19.328125zm3.671875 6.765625q0 2.359375 0.9375 3.484375q0.9375 1.125 2.28125 1.125q1.28125 0 2.140625 -1.03125q0.859375 -1.03125 0.859375 -3.390625q0 -2.203125 -0.890625 -3.265625q-0.875 -1.078125 -2.171875 -1.078125q-1.359375 0 -2.265625 1.046875q-0.890625 1.046875 -0.890625 3.109375zm12.61084 -6.765625l3.453125 0l0 2.0625q0.671875 -1.0625 1.8125 -1.71875q1.15625 -0.65625 2.5625 -0.65625q2.4375 0 4.125 1.90625q1.703125 1.90625 1.703125 5.328125q0 3.5 -1.71875 5.453125q-1.703125 1.9375 -4.140625 1.9375q-1.15625 0 -2.109375 -0.453125q-0.9375 -0.46875 -1.984375 -1.59375l0 7.0625l-3.703125 0l0 -19.328125zm3.671875 6.765625q0 2.359375 0.9375 3.484375q0.9375 1.125 2.28125 1.125q1.28125 0 2.140625 -1.03125q0.859375 -1.03125 0.859375 -3.390625q0 -2.203125 -0.890625 -3.265625q-0.875 -1.078125 -2.171875 -1.078125q-1.359375 0 -2.265625 1.046875q-0.890625 1.046875 -0.890625 3.109375zm11.42334 3.234375l3.703125 -0.5625q0.25 1.078125 0.96875 1.640625q0.71875 0.5625 2.03125 0.5625q1.4375 0 2.15625 -0.53125q0.5 -0.359375 0.5 -0.984375q0 -0.421875 -0.265625 -0.703125q-0.28125 -0.265625 -1.25 -0.484375q-4.46875 -0.984375 -5.671875 -1.8125q-1.671875 -1.125 -1.671875 -3.140625q0 -1.828125 1.4375 -3.0625q1.4375 -1.234375 4.46875 -1.234375q2.875 0 4.265625 0.9375q1.390625 0.921875 1.921875 2.765625l-3.484375 0.640625q-0.234375 -0.8125 -0.859375 -1.25q-0.625 -0.4375 -1.78125 -0.4375q-1.46875 0 -2.09375 0.40625q-0.421875 0.296875 -0.421875 0.75q0 0.40625 0.359375 0.671875q0.5 0.375 3.453125 1.046875q2.96875 0.671875 4.140625 1.65625q1.171875 0.984375 1.171875 2.75q0 1.921875 -1.609375 3.3125q-1.609375 1.375 -4.765625 1.375q-2.859375 0 -4.53125 -1.15625q-1.671875 -1.15625 -2.171875 -3.15625z" fill-rule="nonzero"></path><path fill="#000000" fill-opacity="0.0" d="m265.19684 83.63517l266.92914 0l0 48.000008l-266.92914 0z" fill-rule="nonzero"></path><path fill="#ff0000" d="m305.61337 114.55517l-2.609375 0l0 -9.828125q-1.4375 1.34375 -3.375 1.984375l0 -2.375q1.03125 -0.328125 2.21875 -1.25q1.203125 -0.9375 1.640625 -2.1875l2.125 0l0 13.65625zm4.2507324 0l0 -2.609375l2.609375 0l0 2.609375l-2.609375 0zm10.460358 0l0 -13.484375l2.75 0l0 11.1875l6.828125 0l0 2.296875l-9.578125 0zm13.255341 -6.84375l-2.359375 -0.4375q0.390625 -1.421875 1.359375 -2.109375q0.984375 -0.6875 2.90625 -0.6875q1.734375 0 2.59375 0.421875q0.859375 0.40625 1.203125 1.046875q0.34375 0.625 0.34375 2.328125l-0.03125 3.046875q0 1.296875 0.125 1.921875q0.125 0.609375 0.46875 1.3125l-2.578125 0q-0.09375 -0.265625 -0.25 -0.765625q-0.0625 -0.234375 -0.09375 -0.3125q-0.65625 0.65625 -1.421875 0.984375q-0.765625 0.3125 -1.625 0.3125q-1.515625 0 -2.40625 -0.8125q-0.875 -0.828125 -0.875 -2.09375q0 -0.84375 0.390625 -1.484375q0.40625 -0.65625 1.125 -1.0q0.71875 -0.359375 2.078125 -0.625q1.828125 -0.328125 2.53125 -0.625l0 -0.265625q0 -0.75 -0.375 -1.0625q-0.359375 -0.328125 -1.390625 -0.328125q-0.703125 0 -1.09375 0.28125q-0.390625 0.265625 -0.625 0.953125zm3.484375 2.109375q-0.5 0.171875 -1.59375 0.40625q-1.078125 0.234375 -1.40625 0.453125q-0.515625 0.359375 -0.515625 0.921875q0 0.546875 0.40625 0.953125q0.40625 0.390625 1.046875 0.390625q0.703125 0 1.34375 -0.46875q0.46875 -0.359375 0.625 -0.859375q0.09375 -0.34375 0.09375 -1.28125l0 -0.515625zm11.422607 4.734375l0 -1.46875q-0.53125 0.78125 -1.40625 1.234375q-0.875 0.453125 -1.859375 0.453125q-0.984375 0 -1.78125 -0.4375q-0.78125 -0.4375 -1.140625 -1.21875q-0.34375 -0.796875 -0.34375 -2.1875l0 -6.234375l2.609375 0l0 4.53125q0 2.078125 0.140625 2.546875q0.140625 0.46875 0.515625 0.75q0.390625 0.265625 0.96875 0.265625q0.671875 0 1.203125 -0.359375q0.53125 -0.375 0.71875 -0.90625q0.1875 -0.546875 0.1875 -2.671875l0 -4.15625l2.609375 0l0 9.859375l-2.421875 0zm13.880341 0l-2.609375 0l0 -5.03125q0 -1.59375 -0.171875 -2.0625q-0.15625 -0.46875 -0.53125 -0.71875q-0.375 -0.265625 -0.90625 -0.265625q-0.6875 0 -1.234375 0.375q-0.53125 0.359375 -0.734375 0.984375q-0.1875 0.609375 -0.1875 2.25l0 4.46875l-2.609375 0l0 -9.859375l2.421875 0l0 1.453125q1.296875 -1.671875 3.25 -1.671875q0.859375 0 1.578125 0.3125q0.71875 0.3125 1.078125 0.796875q0.359375 0.484375 0.5 1.09375q0.15625 0.609375 0.15625 1.75l0 6.125zm11.020996 -6.9375l-2.5625 0.46875q-0.140625 -0.78125 -0.59375 -1.171875q-0.453125 -0.390625 -1.1875 -0.390625q-0.984375 0 -1.5625 0.671875q-0.578125 0.671875 -0.578125 2.25q0 1.765625 0.578125 2.484375q0.59375 0.71875 1.59375 0.71875q0.75 0 1.21875 -0.421875q0.46875 -0.421875 0.671875 -1.453125l2.546875 0.4375q-0.390625 1.765625 -1.53125 2.671875q-1.125 0.890625 -3.03125 0.890625q-2.15625 0 -3.453125 -1.359375q-1.28125 -1.359375 -1.28125 -3.78125q0 -2.4375 1.296875 -3.796875q1.296875 -1.359375 3.484375 -1.359375q1.796875 0 2.859375 0.78125q1.0625 0.765625 1.53125 2.359375zm4.391327 -6.65625l0 5.0q1.25 -1.484375 3.015625 -1.484375q0.890625 0 1.609375 0.34375q0.734375 0.328125 1.09375 0.84375q0.375 0.515625 0.5 1.15625q0.140625 0.625 0.140625 1.953125l0 5.78125l-2.609375 0l0 -5.203125q0 -1.546875 -0.15625 -1.96875q-0.140625 -0.421875 -0.515625 -0.65625q-0.375 -0.25 -0.9375 -0.25q-0.65625 0 -1.171875 0.3125q-0.5 0.3125 -0.734375 0.953125q-0.234375 0.640625 -0.234375 1.875l0 4.9375l-2.609375 0l0 -13.59375l2.609375 0zm15.923035 6.75l-2.359375 -0.4375q0.390625 -1.421875 1.359375 -2.109375q0.984375 -0.6875 2.90625 -0.6875q1.734375 0 2.59375 0.421875q0.859375 0.40625 1.203125 1.046875q0.34375 0.625 0.34375 2.328125l-0.03125 3.046875q0 1.296875 0.125 1.921875q0.125 0.609375 0.46875 1.3125l-2.578125 0q-0.09375 -0.265625 -0.25 -0.765625q-0.0625 -0.234375 -0.09375 -0.3125q-0.65625 0.65625 -1.421875 0.984375q-0.765625 0.3125 -1.625 0.3125q-1.515625 0 -2.40625 -0.8125q-0.875 -0.828125 -0.875 -2.09375q0 -0.84375 0.390625 -1.484375q0.40625 -0.65625 1.125 -1.0q0.71875 -0.359375 2.078125 -0.625q1.828125 -0.328125 2.53125 -0.625l0 -0.265625q0 -0.75 -0.375 -1.0625q-0.359375 -0.328125 -1.390625 -0.328125q-0.703125 0 -1.09375 0.28125q-0.390625 0.265625 -0.625 0.953125zm3.484375 2.109375q-0.5 0.171875 -1.59375 0.40625q-1.078125 0.234375 -1.40625 0.453125q-0.515625 0.359375 -0.515625 0.921875q0 0.546875 0.40625 0.953125q0.40625 0.390625 1.046875 0.390625q0.703125 0 1.34375 -0.46875q0.46875 -0.359375 0.625 -0.859375q0.09375 -0.34375 0.09375 -1.28125l0 -0.515625zm9.453857 -5.125l0 2.078125l-1.78125 0l0 3.984375q0 1.203125 0.046875 1.40625q0.0625 0.1875 0.234375 0.328125q0.1875 0.125 0.453125 0.125q0.359375 0 1.046875 -0.25l0.21875 2.015625q-0.90625 0.390625 -2.0625 0.390625q-0.703125 0 -1.265625 -0.234375q-0.5625 -0.234375 -0.828125 -0.609375q-0.265625 -0.375 -0.375 -1.015625q-0.078125 -0.453125 -0.078125 -1.84375l0 -4.296875l-1.203125 0l0 -2.078125l1.203125 0l0 -1.953125l2.609375 -1.515625l0 3.46875l1.78125 0zm15.599091 4.859375l2.671875 0.84375q-0.609375 2.21875 -2.046875 3.3125q-1.421875 1.078125 -3.609375 1.078125q-2.703125 0 -4.453125 -1.84375q-1.734375 -1.859375 -1.734375 -5.078125q0 -3.390625 1.75 -5.265625q1.75 -1.875 4.609375 -1.875q2.5 0 4.046875 1.46875q0.9375 0.875 1.390625 2.5l-2.71875 0.65625q-0.234375 -1.0625 -1.0 -1.671875q-0.765625 -0.609375 -1.859375 -0.609375q-1.515625 0 -2.453125 1.09375q-0.9375 1.078125 -0.9375 3.5q0 2.578125 0.921875 3.6875q0.921875 1.09375 2.40625 1.09375q1.109375 0 1.890625 -0.6875q0.78125 -0.703125 1.125 -2.203125zm4.1604614 -0.0625q0 -1.296875 0.640625 -2.515625q0.640625 -1.21875 1.8125 -1.859375q1.171875 -0.640625 2.609375 -0.640625q2.25 0 3.671875 1.453125q1.421875 1.453125 1.421875 3.671875q0 2.234375 -1.4375 3.703125q-1.4375 1.46875 -3.625 1.46875q-1.359375 0 -2.59375 -0.609375q-1.21875 -0.609375 -1.859375 -1.796875q-0.640625 -1.1875 -0.640625 -2.875zm2.671875 0.140625q0 1.46875 0.6875 2.25q0.703125 0.765625 1.71875 0.765625q1.015625 0 1.703125 -0.765625q0.703125 -0.78125 0.703125 -2.265625q0 -1.453125 -0.703125 -2.234375q-0.6875 -0.78125 -1.703125 -0.78125q-1.015625 0 -1.71875 0.78125q-0.6875 0.78125 -0.6875 2.25zm18.28659 4.921875l-2.609375 0l0 -5.03125q0 -1.59375 -0.171875 -2.0625q-0.15625 -0.46875 -0.53125 -0.71875q-0.375 -0.265625 -0.90625 -0.265625q-0.6875 0 -1.234375 0.375q-0.53125 0.359375 -0.734375 0.984375q-0.1875 0.609375 -0.1875 2.25l0 4.46875l-2.609375 0l0 -9.859375l2.421875 0l0 1.453125q1.296875 -1.671875 3.25 -1.671875q0.859375 0 1.578125 0.3125q0.71875 0.3125 1.078125 0.796875q0.359375 0.484375 0.5 1.09375q0.15625 0.609375 0.15625 1.75l0 6.125zm11.474121 0l-2.421875 0l0 -1.453125q-0.609375 0.84375 -1.4375 1.265625q-0.8125 0.40625 -1.640625 0.40625q-1.703125 0 -2.921875 -1.359375q-1.203125 -1.375 -1.203125 -3.828125q0 -2.5 1.171875 -3.796875q1.1875 -1.3125 2.984375 -1.3125q1.65625 0 2.859375 1.375l0 -4.890625l2.609375 0l0 13.59375zm-6.96875 -5.140625q0 1.578125 0.4375 2.28125q0.640625 1.015625 1.765625 1.015625q0.90625 0 1.53125 -0.765625q0.625 -0.765625 0.625 -2.28125q0 -1.703125 -0.609375 -2.4375q-0.609375 -0.75 -1.5625 -0.75q-0.9375 0 -1.5625 0.734375q-0.625 0.734375 -0.625 2.203125zm9.317841 -6.046875l0 -2.40625l2.609375 0l0 2.40625l-2.609375 0zm0 11.1875l0 -9.859375l2.609375 0l0 9.859375l-2.609375 0zm9.698944 -9.859375l0 2.078125l-1.78125 0l0 3.984375q0 1.203125 0.046875 1.40625q0.0625 0.1875 0.234375 0.328125q0.1875 0.125 0.453125 0.125q0.359375 0 1.046875 -0.25l0.21875 2.015625q-0.90625 0.390625 -2.0625 0.390625q-0.703125 0 -1.265625 -0.234375q-0.5625 -0.234375 -0.828125 -0.609375q-0.265625 -0.375 -0.375 -1.015625q-0.078125 -0.453125 -0.078125 -1.84375l0 -4.296875l-1.203125 0l0 -2.078125l1.203125 0l0 -1.953125l2.609375 -1.515625l0 3.46875l1.78125 0zm1.697052 -1.328125l0 -2.40625l2.609375 0l0 2.40625l-2.609375 0zm0 11.1875l0 -9.859375l2.609375 0l0 9.859375l-2.609375 0zm4.5895386 -5.0625q0 -1.296875 0.640625 -2.515625q0.640625 -1.21875 1.8125 -1.859375q1.171875 -0.640625 2.609375 -0.640625q2.25 0 3.671875 1.453125q1.421875 1.453125 1.421875 3.671875q0 2.234375 -1.4375 3.703125q-1.4375 1.46875 -3.625 1.46875q-1.359375 0 -2.59375 -0.609375q-1.21875 -0.609375 -1.859375 -1.796875q-0.640625 -1.1875 -0.640625 -2.875zm2.671875 0.140625q0 1.46875 0.6875 2.25q0.703125 0.765625 1.71875 0.765625q1.015625 0 1.703125 -0.765625q0.703125 -0.78125 0.703125 -2.265625q0 -1.453125 -0.703125 -2.234375q-0.6875 -0.78125 -1.703125 -0.78125q-1.015625 0 -1.71875 0.78125q-0.6875 0.78125 -0.6875 2.25zm18.286621 4.921875l-2.609375 0l0 -5.03125q0 -1.59375 -0.171875 -2.0625q-0.15625 -0.46875 -0.53125 -0.71875q-0.375 -0.265625 -0.90625 -0.265625q-0.6875 0 -1.234375 0.375q-0.53125 0.359375 -0.734375 0.984375q-0.1875 0.609375 -0.1875 2.25l0 4.46875l-2.609375 0l0 -9.859375l2.421875 0l0 1.453125q1.296875 -1.671875 3.25 -1.671875q0.859375 0 1.578125 0.3125q0.71875 0.3125 1.078125 0.796875q0.359375 0.484375 0.5 1.09375q0.15625 0.609375 0.15625 1.75l0 6.125z" fill-rule="nonzero"></path><path fill="#000000" fill-opacity="0.0" d="m233.19685 135.56168l327.1811 0l0 48.0l-327.1811 0z" fill-rule="nonzero"></path><path fill="#ff9900" d="m281.4828 164.0598l0 2.421875l-9.140625 0q0.15625 -1.375 0.890625 -2.59375q0.75 -1.234375 2.9375 -3.265625q1.765625 -1.640625 2.15625 -2.234375q0.546875 -0.796875 0.546875 -1.59375q0 -0.875 -0.46875 -1.34375q-0.46875 -0.46875 -1.296875 -0.46875q-0.8125 0 -1.296875 0.5q-0.484375 0.484375 -0.5625 1.625l-2.59375 -0.25q0.234375 -2.15625 1.453125 -3.09375q1.21875 -0.9375 3.0625 -0.9375q2.015625 0 3.15625 1.09375q1.15625 1.078125 1.15625 2.6875q0 0.921875 -0.328125 1.75q-0.328125 0.828125 -1.046875 1.734375q-0.46875 0.609375 -1.703125 1.75q-1.234375 1.125 -1.5625 1.5q-0.328125 0.359375 -0.53125 0.71875l5.171875 0zm2.1257324 2.421875l0 -2.609375l2.609375 0l0 2.609375l-2.609375 0zm9.694733 -4.421875l2.671875 -0.265625q0.234375 1.34375 0.96875 1.984375q0.75 0.625 2.0 0.625q1.328125 0 2.0 -0.5625q0.671875 -0.5625 0.671875 -1.3125q0 -0.484375 -0.28125 -0.8125q-0.28125 -0.34375 -0.984375 -0.59375q-0.484375 -0.171875 -2.203125 -0.59375q-2.203125 -0.546875 -3.09375 -1.34375q-1.265625 -1.125 -1.265625 -2.734375q0 -1.046875 0.59375 -1.953125q0.59375 -0.90625 1.703125 -1.375q1.109375 -0.46875 2.671875 -0.46875q2.5625 0 3.859375 1.125q1.296875 1.109375 1.359375 2.984375l-2.75 0.125q-0.171875 -1.046875 -0.75 -1.5q-0.578125 -0.46875 -1.75 -0.46875q-1.1875 0 -1.875 0.5q-0.4375 0.3125 -0.4375 0.84375q0 0.484375 0.421875 0.828125q0.515625 0.421875 2.515625 0.90625q2.0 0.46875 2.953125 0.984375q0.96875 0.5 1.515625 1.375q0.546875 0.875 0.546875 2.15625q0 1.171875 -0.65625 2.203125q-0.640625 1.015625 -1.828125 1.515625q-1.1875 0.484375 -2.96875 0.484375q-2.578125 0 -3.96875 -1.1875q-1.375 -1.1875 -1.640625 -3.46875zm17.631073 -5.4375l0 2.078125l-1.78125 0l0 3.984375q0 1.203125 0.046875 1.40625q0.0625 0.1875 0.234375 0.328125q0.1875 0.125 0.453125 0.125q0.359375 0 1.046875 -0.25l0.21875 2.015625q-0.90625 0.390625 -2.0625 0.390625q-0.703125 0 -1.265625 -0.234375q-0.5625 -0.234375 -0.828125 -0.609375q-0.265625 -0.375 -0.375 -1.015625q-0.078125 -0.453125 -0.078125 -1.84375l0 -4.296875l-1.203125 0l0 -2.078125l1.203125 0l0 -1.953125l2.609375 -1.515625l0 3.46875l1.78125 0zm1.103302 4.796875q0 -1.296875 0.640625 -2.515625q0.640625 -1.21875 1.8125 -1.859375q1.171875 -0.640625 2.609375 -0.640625q2.25 0 3.671875 1.453125q1.421875 1.453125 1.421875 3.671875q0 2.234375 -1.4375 3.703125q-1.4375 1.46875 -3.625 1.46875q-1.359375 0 -2.59375 -0.609375q-1.21875 -0.609375 -1.859375 -1.796875q-0.640625 -1.1875 -0.640625 -2.875zm2.671875 0.140625q0 1.46875 0.6875 2.25q0.703125 0.765625 1.71875 0.765625q1.015625 0 1.703125 -0.765625q0.703125 -0.78125 0.703125 -2.265625q0 -1.453125 -0.703125 -2.234375q-0.6875 -0.78125 -1.703125 -0.78125q-1.015625 0 -1.71875 0.78125q-0.6875 0.78125 -0.6875 2.25zm9.255341 -4.9375l2.421875 0l0 1.453125q0.46875 -0.734375 1.28125 -1.203125q0.8125 -0.46875 1.796875 -0.46875q1.703125 0 2.90625 1.34375q1.203125 1.34375 1.203125 3.75q0 2.46875 -1.21875 3.84375q-1.203125 1.359375 -2.921875 1.359375q-0.8125 0 -1.484375 -0.3125q-0.65625 -0.328125 -1.390625 -1.125l0 4.96875l-2.59375 0l0 -13.609375zm2.578125 4.765625q0 1.65625 0.65625 2.453125q0.65625 0.796875 1.59375 0.796875q0.921875 0 1.515625 -0.71875q0.609375 -0.734375 0.609375 -2.40625q0 -1.546875 -0.625 -2.296875q-0.625 -0.75 -1.53125 -0.75q-0.96875 0 -1.59375 0.734375q-0.625 0.734375 -0.625 2.1875zm13.391785 0.671875l2.671875 -0.265625q0.234375 1.34375 0.96875 1.984375q0.75 0.625 2.0 0.625q1.328125 0 2.0 -0.5625q0.671875 -0.5625 0.671875 -1.3125q0 -0.484375 -0.28125 -0.8125q-0.28125 -0.34375 -0.984375 -0.59375q-0.484375 -0.171875 -2.203125 -0.59375q-2.203125 -0.546875 -3.09375 -1.34375q-1.265625 -1.125 -1.265625 -2.734375q0 -1.046875 0.59375 -1.953125q0.59375 -0.90625 1.703125 -1.375q1.109375 -0.46875 2.671875 -0.46875q2.5625 0 3.859375 1.125q1.296875 1.109375 1.359375 2.984375l-2.75 0.125q-0.171875 -1.046875 -0.75 -1.5q-0.578125 -0.46875 -1.75 -0.46875q-1.1875 0 -1.875 0.5q-0.4375 0.3125 -0.4375 0.84375q0 0.484375 0.421875 0.828125q0.515625 0.421875 2.515625 0.90625q2.0 0.46875 2.953125 0.984375q0.96875 0.5 1.515625 1.375q0.546875 0.875 0.546875 2.15625q0 1.171875 -0.65625 2.203125q-0.640625 1.015625 -1.828125 1.515625q-1.1875 0.484375 -2.96875 0.484375q-2.578125 0 -3.96875 -1.1875q-1.375 -1.1875 -1.640625 -3.46875zm18.818573 1.28125l2.609375 0.4375q-0.5 1.4375 -1.59375 2.1875q-1.078125 0.734375 -2.703125 0.734375q-2.5625 0 -3.796875 -1.671875q-0.96875 -1.34375 -0.96875 -3.40625q0 -2.4375 1.265625 -3.828125q1.28125 -1.390625 3.25 -1.390625q2.1875 0 3.453125 1.453125q1.28125 1.453125 1.234375 4.453125l-6.53125 0q0.015625 1.15625 0.625 1.8125q0.609375 0.640625 1.5 0.640625q0.609375 0 1.03125 -0.328125q0.421875 -0.34375 0.625 -1.09375zm0.15625 -2.625q-0.03125 -1.140625 -0.59375 -1.71875q-0.546875 -0.59375 -1.34375 -0.59375q-0.859375 0 -1.40625 0.625q-0.5625 0.609375 -0.546875 1.6875l3.890625 0zm7.016327 5.765625l-2.609375 0l0 -9.859375l2.421875 0l0 1.40625q0.625 -0.984375 1.109375 -1.296875q0.5 -0.328125 1.140625 -0.328125q0.890625 0 1.71875 0.5l-0.8125 2.265625q-0.65625 -0.421875 -1.21875 -0.421875q-0.546875 0 -0.9375 0.296875q-0.375 0.296875 -0.59375 1.09375q-0.21875 0.78125 -0.21875 3.296875l0 3.046875zm7.4790344 0l-3.96875 -9.859375l2.734375 0l1.84375 5.03125l0.546875 1.6875q0.21875 -0.640625 0.265625 -0.84375q0.125 -0.421875 0.28125 -0.84375l1.875 -5.03125l2.671875 0l-3.90625 9.859375l-2.34375 0zm7.656952 -11.1875l0 -2.40625l2.609375 0l0 2.40625l-2.609375 0zm0 11.1875l0 -9.859375l2.609375 0l0 9.859375l-2.609375 0zm13.777069 -6.9375l-2.5625 0.46875q-0.140625 -0.78125 -0.59375 -1.171875q-0.453125 -0.390625 -1.1875 -0.390625q-0.984375 0 -1.5625 0.671875q-0.578125 0.671875 -0.578125 2.25q0 1.765625 0.578125 2.484375q0.59375 0.71875 1.59375 0.71875q0.75 0 1.21875 -0.421875q0.46875 -0.421875 0.671875 -1.453125l2.546875 0.4375q-0.390625 1.765625 -1.53125 2.671875q-1.125 0.890625 -3.03125 0.890625q-2.15625 0 -3.453125 -1.359375q-1.28125 -1.359375 -1.28125 -3.78125q0 -2.4375 1.296875 -3.796875q1.296875 -1.359375 3.484375 -1.359375q1.796875 0 2.859375 0.78125q1.0625 0.765625 1.53125 2.359375zm7.485077 3.796875l2.609375 0.4375q-0.5 1.4375 -1.59375 2.1875q-1.078125 0.734375 -2.703125 0.734375q-2.5625 0 -3.796875 -1.671875q-0.96875 -1.34375 -0.96875 -3.40625q0 -2.4375 1.265625 -3.828125q1.28125 -1.390625 3.25 -1.390625q2.1875 0 3.453125 1.453125q1.28125 1.453125 1.234375 4.453125l-6.53125 0q0.015625 1.15625 0.625 1.8125q0.609375 0.640625 1.5 0.640625q0.609375 0 1.03125 -0.328125q0.421875 -0.34375 0.625 -1.09375zm0.15625 -2.625q-0.03125 -1.140625 -0.59375 -1.71875q-0.546875 -0.59375 -1.34375 -0.59375q-0.859375 0 -1.40625 0.625q-0.5625 0.609375 -0.546875 1.6875l3.890625 0zm8.559021 -4.09375l1.453125 0l0 -0.734375q0 -1.25 0.265625 -1.859375q0.265625 -0.609375 0.96875 -0.984375q0.71875 -0.390625 1.796875 -0.390625q1.109375 0 2.1875 0.328125l-0.359375 1.8125q-0.625 -0.140625 -1.203125 -0.140625q-0.5625 0 -0.8125 0.265625q-0.234375 0.265625 -0.234375 1.015625l0 0.6875l1.9375 0l0 2.0625l-1.9375 0l0 7.796875l-2.609375 0l0 -7.796875l-1.453125 0l0 -2.0625zm6.759552 4.796875q0 -1.296875 0.640625 -2.515625q0.640625 -1.21875 1.8125 -1.859375q1.171875 -0.640625 2.609375 -0.640625q2.25 0 3.671875 1.453125q1.421875 1.453125 1.421875 3.671875q0 2.234375 -1.4375 3.703125q-1.4375 1.46875 -3.625 1.46875q-1.359375 0 -2.59375 -0.609375q-1.21875 -0.609375 -1.859375 -1.796875q-0.640625 -1.1875 -0.640625 -2.875zm2.671875 0.140625q0 1.46875 0.6875 2.25q0.703125 0.765625 1.71875 0.765625q1.015625 0 1.703125 -0.765625q0.703125 -0.78125 0.703125 -2.265625q0 -1.453125 -0.703125 -2.234375q-0.6875 -0.78125 -1.703125 -0.78125q-1.015625 0 -1.71875 0.78125q-0.6875 0.78125 -0.6875 2.25zm11.817871 4.921875l-2.609375 0l0 -9.859375l2.421875 0l0 1.40625q0.625 -0.984375 1.109375 -1.296875q0.5 -0.328125 1.140625 -0.328125q0.890625 0 1.71875 0.5l-0.8125 2.265625q-0.65625 -0.421875 -1.21875 -0.421875q-0.546875 0 -0.9375 0.296875q-0.375 0.296875 -0.59375 1.09375q-0.21875 0.78125 -0.21875 3.296875l0 3.046875zm9.943573 -13.59375l2.75 0l0 7.359375q0 1.75 0.109375 2.265625q0.171875 0.84375 0.828125 1.359375q0.671875 0.5 1.8125 0.5q1.171875 0 1.765625 -0.484375q0.59375 -0.484375 0.71875 -1.171875q0.125 -0.703125 0.125 -2.3125l0 -7.515625l2.734375 0l0 7.140625q0 2.4375 -0.21875 3.453125q-0.21875 1.015625 -0.828125 1.71875q-0.59375 0.6875 -1.59375 1.109375q-1.0 0.40625 -2.609375 0.40625q-1.953125 0 -2.96875 -0.453125q-1.0 -0.453125 -1.59375 -1.171875q-0.578125 -0.71875 -0.75 -1.5q-0.28125 -1.171875 -0.28125 -3.453125l0 -7.25zm13.410431 3.734375l2.421875 0l0 1.453125q0.46875 -0.734375 1.28125 -1.203125q0.8125 -0.46875 1.796875 -0.46875q1.703125 0 2.90625 1.34375q1.203125 1.34375 1.203125 3.75q0 2.46875 -1.21875 3.84375q-1.203125 1.359375 -2.921875 1.359375q-0.8125 0 -1.484375 -0.3125q-0.65625 -0.328125 -1.390625 -1.125l0 4.96875l-2.59375 0l0 -13.609375zm2.578125 4.765625q0 1.65625 0.65625 2.453125q0.65625 0.796875 1.59375 0.796875q0.921875 0 1.515625 -0.71875q0.609375 -0.734375 0.609375 -2.40625q0 -1.546875 -0.625 -2.296875q-0.625 -0.75 -1.53125 -0.75q-0.96875 0 -1.59375 0.734375q-0.625 0.734375 -0.625 2.1875zm17.927246 5.09375l-2.421875 0l0 -1.453125q-0.609375 0.84375 -1.4375 1.265625q-0.8125 0.40625 -1.640625 0.40625q-1.703125 0 -2.921875 -1.359375q-1.203125 -1.375 -1.203125 -3.828125q0 -2.5 1.171875 -3.796875q1.1875 -1.3125 2.984375 -1.3125q1.65625 0 2.859375 1.375l0 -4.890625l2.609375 0l0 13.59375zm-6.96875 -5.140625q0 1.578125 0.4375 2.28125q0.640625 1.015625 1.765625 1.015625q0.90625 0 1.53125 -0.765625q0.625 -0.765625 0.625 -2.28125q0 -1.703125 -0.609375 -2.4375q-0.609375 -0.75 -1.5625 -0.75q-0.9375 0 -1.5625 0.734375q-0.625 0.734375 -0.625 2.203125zm11.270966 -1.703125l-2.359375 -0.4375q0.390625 -1.421875 1.359375 -2.109375q0.984375 -0.6875 2.90625 -0.6875q1.734375 0 2.59375 0.421875q0.859375 0.40625 1.203125 1.046875q0.34375 0.625 0.34375 2.328125l-0.03125 3.046875q0 1.296875 0.125 1.921875q0.125 0.609375 0.46875 1.3125l-2.578125 0q-0.09375 -0.265625 -0.25 -0.765625q-0.0625 -0.234375 -0.09375 -0.3125q-0.65625 0.65625 -1.421875 0.984375q-0.765625 0.3125 -1.625 0.3125q-1.515625 0 -2.40625 -0.8125q-0.875 -0.828125 -0.875 -2.09375q0 -0.84375 0.390625 -1.484375q0.40625 -0.65625 1.125 -1.0q0.71875 -0.359375 2.078125 -0.625q1.828125 -0.328125 2.53125 -0.625l0 -0.265625q0 -0.75 -0.375 -1.0625q-0.359375 -0.328125 -1.390625 -0.328125q-0.703125 0 -1.09375 0.28125q-0.390625 0.265625 -0.625 0.953125zm3.484375 2.109375q-0.5 0.171875 -1.59375 0.40625q-1.078125 0.234375 -1.40625 0.453125q-0.515625 0.359375 -0.515625 0.921875q0 0.546875 0.40625 0.953125q0.40625 0.390625 1.046875 0.390625q0.703125 0 1.34375 -0.46875q0.46875 -0.359375 0.625 -0.859375q0.09375 -0.34375 0.09375 -1.28125l0 -0.515625zm9.453857 -5.125l0 2.078125l-1.78125 0l0 3.984375q0 1.203125 0.046875 1.40625q0.0625 0.1875 0.234375 0.328125q0.1875 0.125 0.453125 0.125q0.359375 0 1.046875 -0.25l0.21875 2.015625q-0.90625 0.390625 -2.0625 0.390625q-0.703125 0 -1.265625 -0.234375q-0.5625 -0.234375 -0.828125 -0.609375q-0.265625 -0.375 -0.375 -1.015625q-0.078125 -0.453125 -0.078125 -1.84375l0 -4.296875l-1.203125 0l0 -2.078125l1.203125 0l0 -1.953125l2.609375 -1.515625l0 3.46875l1.78125 0zm1.697052 -1.328125l0 -2.40625l2.609375 0l0 2.40625l-2.609375 0zm0 11.1875l0 -9.859375l2.609375 0l0 9.859375l-2.609375 0zm14.152039 0l-2.609375 0l0 -5.03125q0 -1.59375 -0.171875 -2.0625q-0.15625 -0.46875 -0.53125 -0.71875q-0.375 -0.265625 -0.90625 -0.265625q-0.6875 0 -1.234375 0.375q-0.53125 0.359375 -0.734375 0.984375q-0.1875 0.609375 -0.1875 2.25l0 4.46875l-2.609375 0l0 -9.859375l2.421875 0l0 1.453125q1.296875 -1.671875 3.25 -1.671875q0.859375 0 1.578125 0.3125q0.71875 0.3125 1.078125 0.796875q0.359375 0.484375 0.5 1.09375q0.15625 0.609375 0.15625 1.75l0 6.125zm2.192871 0.65625l2.9687805 0.359375q0.078125 0.515625 0.34375 0.703125q0.375 0.28125 1.171875 0.28125q1.03125 0 1.53125 -0.296875q0.34375 -0.203125 0.515625 -0.65625q0.125 -0.328125 0.125 -1.203125l0 -1.4375q-1.171875 1.59375 -2.953125 1.59375q-1.984375 0 -3.1406555 -1.671875q-0.90625 -1.328125 -0.90625 -3.3125q0 -2.46875 1.1875305 -3.78125q1.1875 -1.3125 2.96875 -1.3125q1.828125 0 3.015625 1.609375l0 -1.390625l2.4375 0l0 8.84375q0 1.75 -0.296875 2.609375q-0.28125 0.859375 -0.796875 1.34375q-0.515625 0.5 -1.390625 0.78125q-0.859375 0.28125 -2.1875 0.28125q-2.515625 0 -3.5625 -0.859375q-1.0469055 -0.859375 -1.0469055 -2.171875q0 -0.140625 0.015625 -0.3125zm2.3281555 -5.78125q0 1.5625 0.609375 2.296875q0.609375 0.71875 1.5 0.71875q0.953125 0 1.609375 -0.734375q0.65625 -0.75 0.65625 -2.21875q0 -1.53125 -0.640625 -2.265625q-0.625 -0.75 -1.578125 -0.75q-0.9375 0 -1.546875 0.734375q-0.609375 0.71875 -0.609375 2.21875z" fill-rule="nonzero"></path><path fill="#000000" fill-opacity="0.0" d="m573.3714 142.21523l-355.0551 0" fill-rule="nonzero"></path><path stroke="#ff9900" stroke-width="3.0" stroke-linejoin="round" stroke-linecap="butt" d="m573.3714 142.21523l-337.0551 0" fill-rule="evenodd"></path><path fill="#ff9900" stroke="#ff9900" stroke-width="3.0" stroke-linecap="butt" d="m236.31627 137.26003l-13.614288 4.9552l13.614288 4.9552z" fill-rule="evenodd"></path><path fill="#000000" fill-opacity="0.0" d="m651.3688 170.02887l0 215.59055" fill-rule="nonzero"></path><path stroke="#0000ff" stroke-width="3.0" stroke-linejoin="round" stroke-linecap="butt" d="m651.3688 170.02887l0 197.59055" fill-rule="evenodd"></path><path fill="#0000ff" stroke="#0000ff" stroke-width="3.0" stroke-linecap="butt" d="m646.4136 367.61942l4.9552 13.614288l4.9552 -13.614288z" fill-rule="evenodd"></path><path fill="#000000" fill-opacity="0.0" d="m636.42914 240.18504l277.88977 0l0 47.999985l-277.88977 0z" fill-rule="nonzero"></path><path fill="#0000ff" d="m667.2662 267.49567l2.515625 -0.3125q0.125 0.96875 0.65625 1.484375q0.53125 0.5 1.28125 0.5q0.796875 0 1.34375 -0.609375q0.5625 -0.609375 0.5625 -1.640625q0 -0.984375 -0.53125 -1.5625q-0.53125 -0.578125 -1.28125 -0.578125q-0.5 0 -1.203125 0.203125l0.28125 -2.125q1.0625 0.015625 1.609375 -0.46875q0.5625 -0.484375 0.5625 -1.296875q0 -0.6875 -0.40625 -1.09375q-0.40625 -0.40625 -1.078125 -0.40625q-0.671875 0 -1.140625 0.46875q-0.46875 0.46875 -0.578125 1.359375l-2.40625 -0.421875q0.25 -1.234375 0.75 -1.96875q0.515625 -0.734375 1.421875 -1.15625q0.90625 -0.421875 2.03125 -0.421875q1.90625 0 3.078125 1.21875q0.953125 1.0 0.953125 2.265625q0 1.796875 -1.953125 2.859375q1.15625 0.25 1.859375 1.125q0.703125 0.875 0.703125 2.109375q0 1.78125 -1.3125 3.046875q-1.296875 1.265625 -3.25 1.265625q-1.84375 0 -3.0625 -1.0625q-1.21875 -1.0625 -1.40625 -2.78125zm11.016357 3.609375l0 -2.609375l2.609375 0l0 2.609375l-2.609375 0zm10.429077 0l0 -13.59375l2.75 0l0 6.03125l5.546875 -6.03125l3.6875 0l-5.125 5.296875l5.40625 8.296875l-3.5625 0l-3.734375 -6.390625l-2.21875 2.28125l0 4.109375l-2.75 0zm13.410461 -11.1875l0 -2.40625l2.609375 0l0 2.40625l-2.609375 0zm0 11.1875l0 -9.859375l2.609375 0l0 9.859375l-2.609375 0zm5.1832886 0l0 -13.59375l2.609375 0l0 13.59375l-2.609375 0zm5.1832886 0l0 -13.59375l2.609375 0l0 13.59375l-2.609375 0zm22.647888 0l-2.984375 0l-1.1875 -3.09375l-5.4375 0l-1.125 3.09375l-2.90625 0l5.296875 -13.59375l2.90625 0l5.4375 13.59375zm-5.046875 -5.375l-1.875 -5.046875l-1.84375 5.046875l3.71875 0zm6.1760864 -4.484375l2.421875 0l0 1.453125q0.46875 -0.734375 1.28125 -1.203125q0.8125 -0.46875 1.796875 -0.46875q1.703125 0 2.90625 1.34375q1.203125 1.34375 1.203125 3.75q0 2.46875 -1.21875 3.84375q-1.203125 1.359375 -2.921875 1.359375q-0.8125 0 -1.484375 -0.3125q-0.65625 -0.328125 -1.390625 -1.125l0 4.96875l-2.59375 0l0 -13.609375zm2.578125 4.765625q0 1.65625 0.65625 2.453125q0.65625 0.796875 1.59375 0.796875q0.921875 0 1.515625 -0.71875q0.609375 -0.734375 0.609375 -2.40625q0 -1.546875 -0.625 -2.296875q-0.625 -0.75 -1.53125 -0.75q-0.96875 0 -1.59375 0.734375q-0.625 0.734375 -0.625 2.1875zm8.81781 -4.765625l2.421875 0l0 1.453125q0.46875 -0.734375 1.28125 -1.203125q0.8125 -0.46875 1.796875 -0.46875q1.703125 0 2.90625 1.34375q1.203125 1.34375 1.203125 3.75q0 2.46875 -1.21875 3.84375q-1.203125 1.359375 -2.921875 1.359375q-0.8125 0 -1.484375 -0.3125q-0.65625 -0.328125 -1.390625 -1.125l0 4.96875l-2.59375 0l0 -13.609375zm2.578125 4.765625q0 1.65625 0.65625 2.453125q0.65625 0.796875 1.59375 0.796875q0.921875 0 1.515625 -0.71875q0.609375 -0.734375 0.609375 -2.40625q0 -1.546875 -0.625 -2.296875q-0.625 -0.75 -1.53125 -0.75q-0.96875 0 -1.59375 0.734375q-0.625 0.734375 -0.625 2.1875zm7.974121 2.28125l2.609375 -0.390625q0.171875 0.75 0.671875 1.15625q0.515625 0.390625 1.4375 0.390625q1.0 0 1.515625 -0.375q0.34375 -0.265625 0.34375 -0.703125q0 -0.296875 -0.1875 -0.484375q-0.1875 -0.1875 -0.875 -0.34375q-3.140625 -0.703125 -4.0 -1.265625q-1.15625 -0.796875 -1.15625 -2.21875q0 -1.28125 1.0 -2.15625q1.015625 -0.875 3.140625 -0.875q2.03125 0 3.0 0.65625q0.984375 0.65625 1.359375 1.953125l-2.453125 0.453125q-0.15625 -0.578125 -0.609375 -0.875q-0.4375 -0.3125 -1.25 -0.3125q-1.03125 0 -1.46875 0.296875q-0.296875 0.203125 -0.296875 0.515625q0 0.28125 0.25 0.484375q0.359375 0.25 2.4375 0.734375q2.078125 0.46875 2.90625 1.15625q0.828125 0.6875 0.828125 1.9375q0 1.359375 -1.140625 2.328125q-1.125 0.96875 -3.34375 0.96875q-2.015625 0 -3.1875 -0.8125q-1.171875 -0.8125 -1.53125 -2.21875zm15.324646 -7.046875l1.453125 0l0 -0.734375q0 -1.25 0.265625 -1.859375q0.265625 -0.609375 0.96875 -0.984375q0.71875 -0.390625 1.796875 -0.390625q1.109375 0 2.1875 0.328125l-0.359375 1.8125q-0.625 -0.140625 -1.203125 -0.140625q-0.5625 0 -0.8125 0.265625q-0.234375 0.265625 -0.234375 1.015625l0 0.6875l1.9375 0l0 2.0625l-1.9375 0l0 7.796875l-2.609375 0l0 -7.796875l-1.453125 0l0 -2.0625zm6.7595215 4.796875q0 -1.296875 0.640625 -2.515625q0.640625 -1.21875 1.8125 -1.859375q1.171875 -0.640625 2.609375 -0.640625q2.25 0 3.671875 1.453125q1.421875 1.453125 1.421875 3.671875q0 2.234375 -1.4375 3.703125q-1.4375 1.46875 -3.625 1.46875q-1.359375 0 -2.59375 -0.609375q-1.21875 -0.609375 -1.859375 -1.796875q-0.640625 -1.1875 -0.640625 -2.875zm2.671875 0.140625q0 1.46875 0.6875 2.25q0.703125 0.765625 1.71875 0.765625q1.015625 0 1.703125 -0.765625q0.703125 -0.78125 0.703125 -2.265625q0 -1.453125 -0.703125 -2.234375q-0.6875 -0.78125 -1.703125 -0.78125q-1.015625 0 -1.71875 0.78125q-0.6875 0.78125 -0.6875 2.25zm11.817871 4.921875l-2.609375 0l0 -9.859375l2.421875 0l0 1.40625q0.625 -0.984375 1.109375 -1.296875q0.5 -0.328125 1.140625 -0.328125q0.890625 0 1.71875 0.5l-0.8125 2.265625q-0.65625 -0.421875 -1.21875 -0.421875q-0.546875 0 -0.9375 0.296875q-0.375 0.296875 -0.59375 1.09375q-0.21875 0.78125 -0.21875 3.296875l0 3.046875zm9.9436035 -13.59375l2.75 0l0 7.359375q0 1.75 0.109375 2.265625q0.171875 0.84375 0.828125 1.359375q0.671875 0.5 1.8125 0.5q1.171875 0 1.765625 -0.484375q0.59375 -0.484375 0.71875 -1.171875q0.125 -0.703125 0.125 -2.3125l0 -7.515625l2.734375 0l0 7.140625q0 2.4375 -0.21875 3.453125q-0.21875 1.015625 -0.828125 1.71875q-0.59375 0.6875 -1.59375 1.109375q-1.0 0.40625 -2.609375 0.40625q-1.953125 0 -2.96875 -0.453125q-1.0 -0.453125 -1.59375 -1.171875q-0.578125 -0.71875 -0.75 -1.5q-0.28125 -1.171875 -0.28125 -3.453125l0 -7.25zm13.4104 3.734375l2.421875 0l0 1.453125q0.46875 -0.734375 1.28125 -1.203125q0.8125 -0.46875 1.796875 -0.46875q1.703125 0 2.90625 1.34375q1.203125 1.34375 1.203125 3.75q0 2.46875 -1.21875 3.84375q-1.203125 1.359375 -2.921875 1.359375q-0.8125 0 -1.484375 -0.3125q-0.65625 -0.328125 -1.390625 -1.125l0 4.96875l-2.59375 0l0 -13.609375zm2.578125 4.765625q0 1.65625 0.65625 2.453125q0.65625 0.796875 1.59375 0.796875q0.921875 0 1.515625 -0.71875q0.609375 -0.734375 0.609375 -2.40625q0 -1.546875 -0.625 -2.296875q-0.625 -0.75 -1.53125 -0.75q-0.96875 0 -1.59375 0.734375q-0.625 0.734375 -0.625 2.1875zm17.927246 5.09375l-2.421875 0l0 -1.453125q-0.609375 0.84375 -1.4375 1.265625q-0.8125 0.40625 -1.640625 0.40625q-1.703125 0 -2.921875 -1.359375q-1.203125 -1.375 -1.203125 -3.828125q0 -2.5 1.171875 -3.796875q1.1875 -1.3125 2.984375 -1.3125q1.65625 0 2.859375 1.375l0 -4.890625l2.609375 0l0 13.59375zm-6.96875 -5.140625q0 1.578125 0.4375 2.28125q0.640625 1.015625 1.765625 1.015625q0.90625 0 1.53125 -0.765625q0.625 -0.765625 0.625 -2.28125q0 -1.703125 -0.609375 -2.4375q-0.609375 -0.75 -1.5625 -0.75q-0.9375 0 -1.5625 0.734375q-0.625 0.734375 -0.625 2.203125zm11.270996 -1.703125l-2.359375 -0.4375q0.390625 -1.421875 1.359375 -2.109375q0.984375 -0.6875 2.90625 -0.6875q1.734375 0 2.59375 0.421875q0.859375 0.40625 1.203125 1.046875q0.34375 0.625 0.34375 2.328125l-0.03125 3.046875q0 1.296875 0.125 1.921875q0.125 0.609375 0.46875 1.3125l-2.578125 0q-0.09375 -0.265625 -0.25 -0.765625q-0.0625 -0.234375 -0.09375 -0.3125q-0.65625 0.65625 -1.421875 0.984375q-0.765625 0.3125 -1.625 0.3125q-1.515625 0 -2.40625 -0.8125q-0.875 -0.828125 -0.875 -2.09375q0 -0.84375 0.390625 -1.484375q0.40625 -0.65625 1.125 -1.0q0.71875 -0.359375 2.078125 -0.625q1.828125 -0.328125 2.53125 -0.625l0 -0.265625q0 -0.75 -0.375 -1.0625q-0.359375 -0.328125 -1.390625 -0.328125q-0.703125 0 -1.09375 0.28125q-0.390625 0.265625 -0.625 0.953125zm3.484375 2.109375q-0.5 0.171875 -1.59375 0.40625q-1.078125 0.234375 -1.40625 0.453125q-0.515625 0.359375 -0.515625 0.921875q0 0.546875 0.40625 0.953125q0.40625 0.390625 1.046875 0.390625q0.703125 0 1.34375 -0.46875q0.46875 -0.359375 0.625 -0.859375q0.09375 -0.34375 0.09375 -1.28125l0 -0.515625zm9.453857 -5.125l0 2.078125l-1.78125 0l0 3.984375q0 1.203125 0.046875 1.40625q0.0625 0.1875 0.234375 0.328125q0.1875 0.125 0.453125 0.125q0.359375 0 1.046875 -0.25l0.21875 2.015625q-0.90625 0.390625 -2.0625 0.390625q-0.703125 0 -1.265625 -0.234375q-0.5625 -0.234375 -0.828125 -0.609375q-0.265625 -0.375 -0.375 -1.015625q-0.078125 -0.453125 -0.078125 -1.84375l0 -4.296875l-1.203125 0l0 -2.078125l1.203125 0l0 -1.953125l2.609375 -1.515625l0 3.46875l1.78125 0zm1.6970215 -1.328125l0 -2.40625l2.609375 0l0 2.40625l-2.609375 0zm0 11.1875l0 -9.859375l2.609375 0l0 9.859375l-2.609375 0zm14.152039 0l-2.609375 0l0 -5.03125q0 -1.59375 -0.171875 -2.0625q-0.15625 -0.46875 -0.53125 -0.71875q-0.375 -0.265625 -0.90625 -0.265625q-0.6875 0 -1.234375 0.375q-0.53125 0.359375 -0.734375 0.984375q-0.1875 0.609375 -0.1875 2.25l0 4.46875l-2.609375 0l0 -9.859375l2.421875 0l0 1.453125q1.296875 -1.671875 3.25 -1.671875q0.859375 0 1.578125 0.3125q0.71875 0.3125 1.078125 0.796875q0.359375 0.484375 0.5 1.09375q0.15625 0.609375 0.15625 1.75l0 6.125zm2.192871 0.65625l2.96875 0.359375q0.078125 0.515625 0.34375 0.703125q0.375 0.28125 1.171875 0.28125q1.03125 0 1.53125 -0.296875q0.34375 -0.203125 0.515625 -0.65625q0.125 -0.328125 0.125 -1.203125l0 -1.4375q-1.171875 1.59375 -2.953125 1.59375q-1.984375 0 -3.140625 -1.671875q-0.90625 -1.328125 -0.90625 -3.3125q0 -2.46875 1.1875 -3.78125q1.1875 -1.3125 2.96875 -1.3125q1.828125 0 3.015625 1.609375l0 -1.390625l2.4375 0l0 8.84375q0 1.75 -0.296875 2.609375q-0.28125 0.859375 -0.796875 1.34375q-0.515625 0.5 -1.390625 0.78125q-0.859375 0.28125 -2.1875 0.28125q-2.515625 0 -3.5625 -0.859375q-1.046875 -0.859375 -1.046875 -2.171875q0 -0.140625 0.015625 -0.3125zm2.328125 -5.78125q0 1.5625 0.609375 2.296875q0.609375 0.71875 1.5 0.71875q0.953125 0 1.609375 -0.734375q0.65625 -0.75 0.65625 -2.21875q0 -1.53125 -0.640625 -2.265625q-0.625 -0.75 -1.578125 -0.75q-0.9375 0 -1.546875 0.734375q-0.609375 0.71875 -0.609375 2.21875z" fill-rule="nonzero"></path><path fill="#000000" fill-opacity="0.0" d="m808.979 134.21523l144.15747 0l0 48.0l-144.15747 0z" fill-rule="nonzero"></path><path fill="#9900ff" d="m818.82275 161.63522l2.59375 -0.265625q0.109375 0.875 0.65625 1.390625q0.546875 0.515625 1.265625 0.515625q0.8125 0 1.375 -0.65625q0.578125 -0.671875 0.578125 -2.0q0 -1.25 -0.5625 -1.875q-0.5625 -0.625 -1.46875 -0.625q-1.109375 0 -2.0 0.984375l-2.125 -0.3125l1.34375 -7.078125l6.890625 0l0 2.453125l-4.921875 0l-0.40625 2.296875q0.875 -0.421875 1.78125 -0.421875q1.734375 0 2.9375 1.265625q1.203125 1.25 1.203125 3.265625q0 1.671875 -0.96875 3.0q-1.328125 1.796875 -3.6875 1.796875q-1.875 0 -3.0625 -1.015625q-1.1875 -1.015625 -1.421875 -2.71875zm10.891357 3.5l0 -2.609375l2.609375 0l0 2.609375l-2.609375 0zm10.382202 0l0 -13.59375l4.421875 0q2.5 0 3.265625 0.203125q1.15625 0.296875 1.9375 1.328125q0.796875 1.015625 0.796875 2.640625q0 1.25 -0.453125 2.109375q-0.453125 0.859375 -1.15625 1.34375q-0.703125 0.484375 -1.421875 0.640625q-0.984375 0.203125 -2.84375 0.203125l-1.796875 0l0 5.125l-2.75 0zm2.75 -11.296875l0 3.859375l1.5 0q1.625 0 2.171875 -0.21875q0.546875 -0.21875 0.859375 -0.671875q0.3125 -0.453125 0.3125 -1.046875q0 -0.75 -0.4375 -1.234375q-0.4375 -0.484375 -1.09375 -0.59375q-0.5 -0.09375 -1.984375 -0.09375l-1.328125 0zm11.6311035 4.453125l-2.359375 -0.4375q0.390625 -1.421875 1.359375 -2.109375q0.984375 -0.6875 2.90625 -0.6875q1.734375 0 2.59375 0.421875q0.859375 0.40625 1.203125 1.046875q0.34375 0.625 0.34375 2.328125l-0.03125 3.046875q0 1.296875 0.125 1.921875q0.125 0.609375 0.46875 1.3125l-2.578125 0q-0.09375 -0.265625 -0.25 -0.765625q-0.0625 -0.234375 -0.09375 -0.3125q-0.65625 0.65625 -1.421875 0.984375q-0.765625 0.3125 -1.625 0.3125q-1.515625 0 -2.40625 -0.8125q-0.875 -0.828125 -0.875 -2.09375q0 -0.84375 0.390625 -1.484375q0.40625 -0.65625 1.125 -1.0q0.71875 -0.359375 2.078125 -0.625q1.828125 -0.328125 2.53125 -0.625l0 -0.265625q0 -0.75 -0.375 -1.0625q-0.359375 -0.328125 -1.390625 -0.328125q-0.703125 0 -1.09375 0.28125q-0.390625 0.265625 -0.625 0.953125zm3.484375 2.109375q-0.5 0.171875 -1.59375 0.40625q-1.078125 0.234375 -1.40625 0.453125q-0.515625 0.359375 -0.515625 0.921875q0 0.546875 0.40625 0.953125q0.40625 0.390625 1.046875 0.390625q0.703125 0 1.34375 -0.46875q0.46875 -0.359375 0.625 -0.859375q0.09375 -0.34375 0.09375 -1.28125l0 -0.515625zm9.453796 -5.125l0 2.078125l-1.78125 0l0 3.984375q0 1.203125 0.046875 1.40625q0.0625 0.1875 0.234375 0.328125q0.1875 0.125 0.453125 0.125q0.359375 0 1.046875 -0.25l0.21875 2.015625q-0.90625 0.390625 -2.0625 0.390625q-0.703125 0 -1.265625 -0.234375q-0.5625 -0.234375 -0.828125 -0.609375q-0.265625 -0.375 -0.375 -1.015625q-0.078125 -0.453125 -0.078125 -1.84375l0 -4.296875l-1.203125 0l0 -2.078125l1.203125 0l0 -1.953125l2.609375 -1.515625l0 3.46875l1.78125 0zm10.2908325 2.921875l-2.5625 0.46875q-0.140625 -0.78125 -0.59375 -1.171875q-0.453125 -0.390625 -1.1875 -0.390625q-0.984375 0 -1.5625 0.671875q-0.578125 0.671875 -0.578125 2.25q0 1.765625 0.578125 2.484375q0.59375 0.71875 1.59375 0.71875q0.75 0 1.21875 -0.421875q0.46875 -0.421875 0.671875 -1.453125l2.546875 0.4375q-0.390625 1.765625 -1.53125 2.671875q-1.125 0.890625 -3.03125 0.890625q-2.15625 0 -3.453125 -1.359375q-1.28125 -1.359375 -1.28125 -3.78125q0 -2.4375 1.296875 -3.796875q1.296875 -1.359375 3.484375 -1.359375q1.796875 0 2.859375 0.78125q1.0625 0.765625 1.53125 2.359375zm4.3913574 -6.65625l0 5.0q1.25 -1.484375 3.015625 -1.484375q0.890625 0 1.609375 0.34375q0.734375 0.328125 1.09375 0.84375q0.375 0.515625 0.5 1.15625q0.140625 0.625 0.140625 1.953125l0 5.78125l-2.609375 0l0 -5.203125q0 -1.546875 -0.15625 -1.96875q-0.140625 -0.421875 -0.515625 -0.65625q-0.375 -0.25 -0.9375 -0.25q-0.65625 0 -1.171875 0.3125q-0.5 0.3125 -0.734375 0.953125q-0.234375 0.640625 -0.234375 1.875l0 4.9375l-2.609375 0l0 -13.59375l2.609375 0zm26.25116 13.59375l-2.984375 0l-1.1875 -3.09375l-5.4375 0l-1.125 3.09375l-2.90625 0l5.296875 -13.59375l2.90625 0l5.4375 13.59375zm-5.046875 -5.375l-1.875 -5.046875l-1.84375 5.046875l3.71875 0zm6.2385254 5.375l0 -13.59375l2.609375 0l0 13.59375l-2.609375 0zm5.1833496 0l0 -13.59375l2.609375 0l0 13.59375l-2.609375 0z" fill-rule="nonzero"></path><path fill="#000000" fill-opacity="0.0" d="m326.92023 173.68776l203.62207 187.4016l-32.503967 35.338593l-203.62204 -187.4016z" fill-rule="nonzero"></path><path fill="#ff0000" d="m335.51205 223.62645l-1.9199829 -1.7670441l6.653351 -7.233597q-1.9674072 0.015548706 -3.8266907 -0.82499695l1.6077881 -1.7480164q0.9809265 0.45684814 2.4787903 0.5825043q1.519928 0.1247406 2.6880493 -0.49900818l1.5635986 1.4390411l-9.244904 10.051117zm3.127716 2.8785553l1.7664795 -1.920517l1.9199829 1.7670441l-1.7664795 1.9205322l-1.9199829 -1.7670593zm7.696808 7.083679l9.1285095 -9.924637l2.023468 1.8622894l-7.5736084 8.2341l5.02417 4.623947l-1.5549011 1.6905212l-7.047638 -6.4862213zm14.386383 3.9393616l-1.4398804 -1.919754q1.25 -0.7819977 2.4282227 -0.63197327q1.1897278 0.16061401 2.6038818 1.4620819q1.2761536 1.1745148 1.6228943 2.0669708q0.3572998 0.8809662 0.17654419 1.5852661q-0.17016602 0.6927948 -1.3231201 1.9463043l-2.0856628 2.2213593q-0.8779297 0.95451355 -1.2090759 1.499176q-0.32055664 0.53315735 -0.5436096 1.2834473l-1.8970032 -1.7458954q0.110839844 -0.25898743 0.3343506 -0.73280334q0.112701416 -0.21482849 0.14257812 -0.29348755q-0.927124 0.038604736 -1.712616 -0.2383728q-0.77490234 -0.2884674 -1.4072266 -0.8704376q-1.1152039 -1.0263672 -1.22052 -2.2274933q-0.08319092 -1.2020569 0.7735901 -2.1335602q0.5711975 -0.62101746 1.2922974 -0.8279877q0.7431946 -0.207901 1.5047607 0.02583313q0.77215576 0.222229 1.9522095 0.9472809q1.5672607 0.9964905 2.285614 1.2541351l0.17980957 -0.1954956q0.50775146 -0.5520172 0.44335938 -1.035965q-0.042297363 -0.48486328 -0.8010864 -1.1832275q-0.5173645 -0.4761505 -0.99520874 -0.53367615q-0.46722412 -0.0690155 -1.1051025 0.27827454zm1.1358337 3.9121094q-0.48425293 -0.21209717 -1.4476929 -0.78027344q-0.95196533 -0.5576019 -1.3414917 -0.61880493q-0.62268066 -0.08467102 -1.003479 0.32933044q-0.37020874 0.4025116 -0.34631348 0.97662354q0.034484863 0.5626221 0.5058594 0.9964447q0.5173645 0.4761505 1.3060608 0.5649719q0.5881958 0.05293274 1.0416565 -0.20925903q0.30169678 -0.18952942 0.93634033 -0.87953186l0.34906006 -0.37950134zm5.1997986 11.219833l0.9942932 -1.0810242q-0.9197998 0.21525574 -1.8703613 -0.043777466q-0.95059204 -0.25904846 -1.6748962 -0.9256592q-0.7243042 -0.6666107 -1.0144958 -1.528244q-0.278656 -0.85105896 -0.014221191 -1.6694336q0.28652954 -0.81929016 1.2279663 -1.842804l4.2204895 -4.588562l1.9199829 1.7670441l-3.0675354 3.3350372q-1.4068298 1.5295258 -1.6206665 1.9697571q-0.21386719 0.44023132 -0.12832642 0.9011841q0.10760498 0.46003723 0.5329895 0.851532q0.49435425 0.45498657 1.12854 0.5502472q0.6447754 0.08375549 1.1423645 -0.1802826q0.5081787 -0.27552795 1.9467468 -1.8395386l2.8136597 -3.0590515l1.9200134 1.7670593l-6.67453 7.256592l-1.7820129 -1.6400757zm10.213226 9.399673l-1.9199829 -1.7670593l3.4060059 -3.7030334q1.0789185 -1.1730194 1.2698059 -1.6344299q0.20233154 -0.45080566 0.09567261 -0.8887634q-0.09613037 -0.44944763 -0.4869995 -0.8092041q-0.5058899 -0.46557617 -1.1621399 -0.559906q-0.6341858 -0.09526062 -1.2067566 0.22720337q-0.5504761 0.3215332 -1.6611328 1.5290375l-3.025238 3.2890472l-1.9199829 -1.7670441l6.6744995 -7.256592l1.7820435 1.6400757l-0.98373413 1.0695038q2.0860596 -0.35227966 3.5231934 0.97036743q0.6323242 0.58195496 0.949646 1.2986908q0.31729126 0.71673584 0.2538147 1.3166046q-0.06347656 0.5998688 -0.37252808 1.1436157q-0.2975464 0.5543213 -1.0697327 1.3938293l-4.146454 4.5080566zm12.805817 2.3572388l-2.2028503 -1.3902893q0.42541504 -0.67022705 0.3564453 -1.2645874q-0.06896973 -0.59436035 -0.60931396 -1.0916748q-0.7243347 -0.666626 -1.6045532 -0.56359863q-0.8802185 0.102996826 -1.9485779 1.2644958q-1.195282 1.29953 -1.2564697 2.2200317q-0.049682617 0.9310913 0.6861267 1.6082764q0.55184937 0.50790405 1.182373 0.51483154q0.63049316 0.0069274902 1.4780884 -0.6145325l1.5778198 2.046753q-1.4826965 1.0349731 -2.9354858 0.9295654q-1.4306946 -0.10632324 -2.8333435 -1.3972473q-1.5865784 -1.4601746 -1.6205444 -3.3389282q-0.022521973 -1.8681641 1.6170349 -3.6506958q1.650116 -1.7940063 3.5246277 -1.9162903q1.8745117 -0.122283936 3.4840698 1.3590698q1.3221436 1.2168274 1.5750732 2.5113525q0.26348877 1.28302 -0.47052002 2.773468zm7.7372437 -1.9252625l-3.3848572 3.6800232q1.9246521 -0.2460022 3.223816 0.949646q0.6553345 0.6031494 0.95147705 1.342865q0.3182068 0.73883057 0.23358154 1.3616943q-0.07312012 0.63345337 -0.41482544 1.1896057q-0.3196411 0.5552368 -1.21875 1.5327454l-3.9137268 4.255066l-1.9200134 -1.7670593l3.5223694 -3.8295593q1.0471802 -1.1384888 1.2178345 -1.5548096q0.18209839 -0.4057312 0.06484985 -0.83218384q-0.10668945 -0.43795776 -0.52056885 -0.8188782q-0.48287964 -0.44439697 -1.073822 -0.5635681q-0.5794678 -0.10861206 -1.1856079 0.20419312q-0.60614014 0.31277466 -1.4417725 1.221283l-3.3425598 3.6340637l-1.9199829 -1.7670593l9.202576 -10.005127l1.9199829 1.7670593zm7.1467285 15.751007l-1.4398804 -1.9197388q1.25 -0.78201294 2.4282227 -0.6319885q1.1897278 0.16061401 2.6038818 1.4620972q1.2761536 1.1744995 1.6228943 2.066986q0.3572998 0.8809509 0.17654419 1.5852356q-0.17016602 0.69281006 -1.3231201 1.9463196l-2.0856628 2.2213745q-0.8779297 0.9544983 -1.2090759 1.4991455q-0.32055664 0.5331726 -0.5436096 1.2834473l-1.8970032 -1.7458801q0.110839844 -0.25897217 0.3343506 -0.7327881q0.112701416 -0.21484375 0.14257812 -0.29348755q-0.927124 0.03857422 -1.712616 -0.23840332q-0.77490234 -0.28845215 -1.4072266 -0.87042236q-1.1152344 -1.0263672 -1.22052 -2.2275085q-0.08319092 -1.2020569 0.7735901 -2.133545q0.5711975 -0.6210327 1.2922974 -0.8280029q0.7431946 -0.20788574 1.5047607 0.025848389q0.77215576 0.222229 1.9522095 0.9472656q1.5672607 0.9964905 2.285614 1.2541504l0.17980957 -0.1954956q0.50775146 -0.55200195 0.44335938 -1.0359802q-0.042297363 -0.48486328 -0.8010864 -1.183197q-0.5173645 -0.47616577 -0.9951782 -0.5336914q-0.46725464 -0.06903076 -1.105133 0.27825928zm1.1358337 3.9121094q-0.48425293 -0.21209717 -1.4476929 -0.78027344q-0.95196533 -0.55758667 -1.3414917 -0.6187744q-0.62268066 -0.08468628 -1.003479 0.3293152q-0.37020874 0.40249634 -0.34631348 0.97662354q0.034484863 0.5626221 0.5058594 0.99642944q0.5173645 0.47616577 1.3060608 0.5649719q0.5881958 0.052947998 1.0416565 -0.20925903q0.30169678 -0.18951416 0.93634033 -0.8795166l0.34906006 -0.3795166zm10.425659 2.630005l-1.4068298 1.529541l-1.3106384 -1.2062683l-2.6973267 2.9325562q-0.81448364 0.88549805 -0.91748047 1.066742q-0.080963135 0.18032837 -0.049682617 0.40023804q0.053344727 0.21896362 0.2487793 0.39883423q0.2644348 0.24337769 0.9395447 0.52493286l-1.2035522 1.6316528q-0.9312744 -0.3262024 -1.7820435 -1.1091919q-0.5173645 -0.47616577 -0.772583 -1.0295715q-0.25524902 -0.5534363 -0.19680786 -1.0093079q0.058410645 -0.45587158 0.4116211 -1.0014648q0.24926758 -0.38641357 1.1906738 -1.4099121l2.908844 -3.1625366l-0.8852539 -0.8147583l1.4068298 -1.5295105l0.8852539 0.8147278l1.3222351 -1.4375l2.9460144 0.6515198l-2.348236 2.5530396l1.3106384 1.2062378zm8.188293 14.140167l1.3947754 2.4303894q-1.9504089 1.2203369 -3.7485657 1.0518799q-1.7760925 -0.16937256 -3.3856506 -1.6507263q-1.9889832 -1.8305359 -2.028473 -4.3726196q-0.017425537 -2.5430298 2.16156 -4.912079q2.2953796 -2.495514 4.852356 -2.6904602q2.5569763 -0.19491577 4.660919 1.7414246q1.839508 1.6929932 1.9833984 3.8215332q0.097473145 1.2788696 -0.66918945 2.7817383l-2.4447327 -1.3581238q0.5468445 -0.94070435 0.3959961 -1.9076843q-0.15081787 -0.96698 -0.9555969 -1.7076721q-1.1152039 -1.0263672 -2.5454712 -0.8562317q-1.4196777 0.15866089 -3.059204 1.9411621q-1.7453308 1.897522 -1.8180237 3.3383179q-0.06210327 1.4293213 1.0300903 2.4345093q0.8162842 0.7512512 1.8565674 0.7743225q1.0508423 0.0115356445 2.3192444 -0.8596802zm3.1035767 2.7713928q0.8779297 -0.9544983 2.1743774 -1.4176941q1.2964172 -0.46316528 2.5923767 -0.14111328q1.2959595 0.32208252 2.3536987 1.2955627q1.6555481 1.5236816 1.7180481 3.5560608q0.0625 2.0324097 -1.4395142 3.6654358q-1.5126038 1.6445007 -3.5646362 1.7520752q-2.0520325 0.107543945 -3.6615906 -1.3738098q-1.0002441 -0.92056274 -1.4959717 -2.2049866q-0.48425293 -1.2738342 -0.15170288 -2.581665q0.33251953 -1.3078308 1.4749146 -2.5498657zm1.8707886 1.9128723q-0.99432373 1.0810242 -1.017334 2.1216125q-9.460449E-4 1.0396423 0.7463684 1.727417q0.74728394 0.68777466 1.7714844 0.58984375q1.0462341 -0.098846436 2.051117 -1.1913757q0.98373413 -1.069519 0.99523926 -2.1206665q0.023010254 -1.0405884 -0.7242737 -1.728363q-0.74731445 -0.68777466 -1.7935486 -0.5888977q-1.0347595 0.109436035 -2.0290527 1.1904297zm10.123444 16.006104l-1.9200134 -1.7670288l3.4060059 -3.703064q1.078949 -1.1730042 1.2698059 -1.6343994q0.20236206 -0.45080566 0.09567261 -0.8887634q-0.09609985 -0.4494629 -0.4869995 -0.8092041q-0.5058899 -0.46557617 -1.1621399 -0.559906q-0.6341858 -0.09527588 -1.2067566 0.22720337q-0.5504761 0.3215027 -1.6611328 1.5290222l-3.0252075 3.2890625l-1.9200134 -1.7670593l6.67453 -7.256592l1.7820129 1.6400757l-0.9837036 1.069519q2.0860596 -0.35229492 3.5231628 0.97036743q0.6323242 0.5819397 0.949646 1.2986755q0.31732178 0.71673584 0.2538147 1.3166199q-0.06347656 0.5998535 -0.37252808 1.1435852q-0.2975464 0.5543213 -1.0697327 1.3938293l-4.1464233 4.5080566zm8.442688 7.770172l-1.7820129 -1.6400757l0.9837036 -1.069519q-1.0195618 0.2083435 -1.9145203 -0.041931152q-0.87283325 -0.2512207 -1.4821777 -0.8120117q-1.2531738 -1.1533508 -1.2296753 -2.979187q0.045562744 -1.8267822 1.7062683 -3.6322937q1.6924133 -1.8400269 3.4326477 -2.000946q1.7622681 -0.16186523 3.0844421 1.0549927q1.2186584 1.121582 1.1730957 2.9483337l3.3108215 -3.5995483l1.9199829 1.7670593l-9.202576 10.005127zm-1.647583 -8.502716q-1.0683594 1.161499 -1.2224426 1.9752808q-0.216156 1.1813354 0.6116333 1.9431763q0.6668091 0.6137085 1.644989 0.4734497q0.97817993 -0.14025879 2.0042114 -1.2557678q1.1529846 -1.25354 1.2017517 -2.2066956q0.05935669 -0.96466064 -0.6419678 -1.6101379q-0.68981934 -0.6348572 -1.6468506 -0.5175781q-0.95703125 0.117248535 -1.9513245 1.1982727zm10.949707 1.859436l1.6289673 -1.7710266l1.9199829 1.7670288l-1.6289673 1.7710266l-1.9199829 -1.7670288zm-7.5736084 8.2341l6.6744995 -7.256592l1.9199829 1.7670288l-6.6744995 7.256592l-1.9199829 -1.7670288zm13.811035 -0.6885681l-1.4068298 1.5295105l-1.310669 -1.2062378l-2.6972961 2.9325256q-0.81448364 0.88552856 -0.917511 1.0667725q-0.08093262 0.18032837 -0.049682617 0.40020752q0.053344727 0.21896362 0.24880981 0.39886475q0.2644043 0.24334717 0.93951416 0.52493286l-1.2035522 1.6316528q-0.9312744 -0.3262024 -1.7820435 -1.1092224q-0.5173645 -0.47613525 -0.772583 -1.0295715q-0.2552185 -0.55340576 -0.19680786 -1.0093079q0.058410645 -0.45587158 0.4116211 -1.0014343q0.24926758 -0.38641357 1.1906738 -1.4099426l2.9088745 -3.1625366l-0.8852844 -0.8147583l1.4068298 -1.5295105l0.8852844 0.8147583l1.3222046 -1.4375305l2.9460144 0.6515503l-2.348236 2.553009l1.310669 1.2062683zm2.1477966 0.17172241l1.6289673 -1.7710266l1.9199829 1.7670288l-1.6289673 1.7710266l-1.9199829 -1.7670288zm-7.5736084 8.2341l6.6744995 -7.256592l1.9199829 1.7670288l-6.6744995 7.256592l-1.9199829 -1.7670288zm6.804199 -0.618042q0.8779297 -0.9544983 2.1743774 -1.4176941q1.2964172 -0.46316528 2.5923767 -0.14111328q1.2959595 0.32208252 2.3536987 1.2955627q1.6555481 1.5236816 1.7180481 3.5560608q0.0625 2.0324097 -1.4395142 3.6654358q-1.5126038 1.6445007 -3.5646362 1.7520752q-2.0520325 0.107543945 -3.6615906 -1.3738098q-1.0002441 -0.92056274 -1.4959717 -2.2049866q-0.48425293 -1.2738342 -0.15170288 -2.581665q0.33251953 -1.3078308 1.4749146 -2.5498657zm1.870758 1.9128723q-0.9942932 1.0810242 -1.0173035 2.1216125q-9.460449E-4 1.0396423 0.7463684 1.727417q0.74728394 0.68777466 1.7714539 0.58984375q1.0462646 -0.098846436 2.0511475 -1.1913757q0.9837036 -1.069519 0.99523926 -2.1206665q0.023010254 -1.0405884 -0.7243042 -1.728363q-0.74728394 -0.68777466 -1.7935486 -0.5888977q-1.034729 0.109436035 -2.0290527 1.1904297zm10.123444 16.006104l-1.9200134 -1.7670593l3.4060059 -3.7030334q1.078949 -1.1730347 1.2698059 -1.6344299q0.20236206 -0.45080566 0.09567261 -0.8887634q-0.09609985 -0.44943237 -0.4869995 -0.8092041q-0.5058594 -0.46557617 -1.1621399 -0.559906q-0.6341858 -0.09524536 -1.2067566 0.22720337q-0.5504761 0.3215332 -1.6611328 1.5290527l-3.0252075 3.289032l-1.9200134 -1.7670593l6.67453 -7.256592l1.7820129 1.6400757l-0.9837036 1.069519q2.0860596 -0.35229492 3.5231628 0.97036743q0.63235474 0.5819397 0.949646 1.2986755q0.31732178 0.71673584 0.2538452 1.3166199q-0.06347656 0.59988403 -0.3725586 1.1436157q-0.2975464 0.5543213 -1.0697327 1.3938293l-4.1464233 4.5080566zm3.0231323 -1.0400391l2.1844177 1.4795532q-0.3812561 0.668396 -0.2883606 1.3059998q0.11495972 0.63668823 0.7932739 1.2609558q0.7358093 0.6772156 1.3690796 0.7503662q0.43273926 0.03729248 0.72891235 -0.2846985q0.20098877 -0.21850586 0.1899414 -0.48349q-0.011016846 -0.26498413 -0.4111023 -0.84555054q-1.8348999 -2.6443176 -2.0864258 -3.6402893q-0.31134033 -1.3695068 0.6512451 -2.4160156q0.8673706 -0.9430237 2.1955261 -0.90982056q1.3396606 0.043762207 2.9032288 1.4827881q1.4945984 1.3755493 1.7631531 2.5145874q0.2800598 1.1496277 -0.32196045 2.3580627l-2.111786 -1.3277283q0.2763977 -0.53131104 0.14398193 -1.0566711q-0.11038208 -0.52627563 -0.70822144 -1.076477q-0.75878906 -0.69836426 -1.2816772 -0.77612305q-0.35595703 -0.05154419 -0.5675049 0.1784668q-0.19039917 0.20700073 -0.14395142 0.52578735q0.095184326 0.42736816 1.2963562 2.191162q1.211792 1.7522888 1.3557129 2.8190918q0.1439209 1.0668335 -0.702301 1.9868469q-0.92025757 1.0004883 -2.4153442 0.94107056q-1.4836121 -0.048828125 -3.1161804 -1.5513306q-1.4831238 -1.3649597 -1.7953491 -2.7565613q-0.31222534 -1.3916016 0.3753357 -2.669983z" fill-rule="nonzero"></path><path fill="#000000" fill-opacity="0.0" d="m632.95667 169.08136l197.98425 0l0 48.0l-197.98425 0z" fill-rule="nonzero"></path><path fill="#9900ff" d="m668.42444 200.00136l0 -2.734375l-5.5625 0l0 -2.28125l5.890625 -8.640625l2.1875 0l0 8.625l1.6875 0l0 2.296875l-1.6875 0l0 2.734375l-2.515625 0zm0 -5.03125l0 -4.640625l-3.125 4.640625l3.125 0zm5.8132324 5.03125l0 -2.609375l2.609375 0l0 2.609375l-2.609375 0zm10.382202 -13.59375l5.015625 0q1.703125 0 2.59375 0.25q1.1875 0.359375 2.046875 1.265625q0.859375 0.890625 1.296875 2.203125q0.453125 1.296875 0.453125 3.203125q0 1.6875 -0.421875 2.890625q-0.515625 1.484375 -1.453125 2.40625q-0.71875 0.703125 -1.9375 1.09375q-0.90625 0.28125 -2.421875 0.28125l-5.171875 0l0 -13.59375zm2.75 2.296875l0 9.0l2.046875 0q1.140625 0 1.65625 -0.125q0.671875 -0.171875 1.109375 -0.5625q0.4375 -0.40625 0.71875 -1.3125q0.28125 -0.921875 0.28125 -2.5q0 -1.578125 -0.28125 -2.421875q-0.28125 -0.84375 -0.78125 -1.3125q-0.5 -0.46875 -1.265625 -0.640625q-0.578125 -0.125 -2.25 -0.125l-1.234375 0zm10.113586 6.234375q0 -1.296875 0.640625 -2.515625q0.640625 -1.21875 1.8125 -1.859375q1.171875 -0.640625 2.609375 -0.640625q2.25 0 3.671875 1.453125q1.421875 1.453125 1.421875 3.671875q0 2.234375 -1.4375 3.703125q-1.4375 1.46875 -3.625 1.46875q-1.359375 0 -2.59375 -0.609375q-1.21875 -0.609375 -1.859375 -1.796875q-0.640625 -1.1875 -0.640625 -2.875zm2.671875 0.140625q0 1.46875 0.6875 2.25q0.703125 0.765625 1.71875 0.765625q1.015625 0 1.703125 -0.765625q0.703125 -0.78125 0.703125 -2.265625q0 -1.453125 -0.703125 -2.234375q-0.6875 -0.78125 -1.703125 -0.78125q-1.015625 0 -1.71875 0.78125q-0.6875 0.78125 -0.6875 2.25zm11.161621 4.921875l-3.125 -9.859375l2.53125 0l1.859375 6.46875l1.6875 -6.46875l2.515625 0l1.640625 6.46875l1.890625 -6.46875l2.5625 0l-3.15625 9.859375l-2.515625 0l-1.6875 -6.34375l-1.671875 6.34375l-2.53125 0zm21.636414 0l-2.609375 0l0 -5.03125q0 -1.59375 -0.171875 -2.0625q-0.15625 -0.46875 -0.53125 -0.71875q-0.375 -0.265625 -0.90625 -0.265625q-0.6875 0 -1.234375 0.375q-0.53125 0.359375 -0.734375 0.984375q-0.1875 0.609375 -0.1875 2.25l0 4.46875l-2.609375 0l0 -9.859375l2.421875 0l0 1.453125q1.296875 -1.671875 3.25 -1.671875q0.859375 0 1.578125 0.3125q0.71875 0.3125 1.078125 0.796875q0.359375 0.484375 0.5 1.09375q0.15625 0.609375 0.15625 1.75l0 6.125zm2.427246 0l0 -13.59375l2.609375 0l0 13.59375l-2.609375 0zm4.5895386 -5.0625q0 -1.296875 0.640625 -2.515625q0.640625 -1.21875 1.8125 -1.859375q1.171875 -0.640625 2.609375 -0.640625q2.25 0 3.671875 1.453125q1.421875 1.453125 1.421875 3.671875q0 2.234375 -1.4375 3.703125q-1.4375 1.46875 -3.625 1.46875q-1.359375 0 -2.59375 -0.609375q-1.21875 -0.609375 -1.859375 -1.796875q-0.640625 -1.1875 -0.640625 -2.875zm2.671875 0.140625q0 1.46875 0.6875 2.25q0.703125 0.765625 1.71875 0.765625q1.015625 0 1.703125 -0.765625q0.703125 -0.78125 0.703125 -2.265625q0 -1.453125 -0.703125 -2.234375q-0.6875 -0.78125 -1.703125 -0.78125q-1.015625 0 -1.71875 0.78125q-0.6875 0.78125 -0.6875 2.25zm11.270996 -1.921875l-2.359375 -0.4375q0.390625 -1.421875 1.359375 -2.109375q0.984375 -0.6875 2.90625 -0.6875q1.734375 0 2.59375 0.421875q0.859375 0.40625 1.203125 1.046875q0.34375 0.625 0.34375 2.328125l-0.03125 3.046875q0 1.296875 0.125 1.921875q0.125 0.609375 0.46875 1.3125l-2.578125 0q-0.09375 -0.265625 -0.25 -0.765625q-0.0625 -0.234375 -0.09375 -0.3125q-0.65625 0.65625 -1.421875 0.984375q-0.765625 0.3125 -1.625 0.3125q-1.515625 0 -2.40625 -0.8125q-0.875 -0.828125 -0.875 -2.09375q0 -0.84375 0.390625 -1.484375q0.40625 -0.65625 1.125 -1.0q0.71875 -0.359375 2.078125 -0.625q1.828125 -0.328125 2.53125 -0.625l0 -0.265625q0 -0.75 -0.375 -1.0625q-0.359375 -0.328125 -1.390625 -0.328125q-0.703125 0 -1.09375 0.28125q-0.390625 0.265625 -0.625 0.953125zm3.484375 2.109375q-0.5 0.171875 -1.59375 0.40625q-1.078125 0.234375 -1.40625 0.453125q-0.515625 0.359375 -0.515625 0.921875q0 0.546875 0.40625 0.953125q0.40625 0.390625 1.046875 0.390625q0.703125 0 1.34375 -0.46875q0.46875 -0.359375 0.625 -0.859375q0.09375 -0.34375 0.09375 -1.28125l0 -0.515625zm13.985046 4.734375l-2.421875 0l0 -1.453125q-0.609375 0.84375 -1.4375 1.265625q-0.8125 0.40625 -1.640625 0.40625q-1.703125 0 -2.921875 -1.359375q-1.203125 -1.375 -1.203125 -3.828125q0 -2.5 1.171875 -3.796875q1.1875 -1.3125 2.984375 -1.3125q1.65625 0 2.859375 1.375l0 -4.890625l2.609375 0l0 13.59375zm-6.96875 -5.140625q0 1.578125 0.4375 2.28125q0.640625 1.015625 1.765625 1.015625q0.90625 0 1.53125 -0.765625q0.625 -0.765625 0.625 -2.28125q0 -1.703125 -0.609375 -2.4375q-0.609375 -0.75 -1.5625 -0.75q-0.9375 0 -1.5625 0.734375q-0.625 0.734375 -0.625 2.203125zm26.78241 5.140625l-2.984375 0l-1.1875 -3.09375l-5.4375 0l-1.125 3.09375l-2.90625 0l5.296875 -13.59375l2.90625 0l5.4375 13.59375zm-5.046875 -5.375l-1.875 -5.046875l-1.84375 5.046875l3.71875 0zm6.2385864 5.375l0 -13.59375l2.609375 0l0 13.59375l-2.609375 0zm5.1832886 0l0 -13.59375l2.609375 0l0 13.59375l-2.609375 0z" fill-rule="nonzero"></path><path fill="#000000" fill-opacity="0.0" d="m122.49213 69.88659c62.987747 -5.8569794 252.88156 -35.6298 377.92648 -35.14187c125.04495 0.4879303 310.28586 31.72454 372.34305 38.06945" fill-rule="nonzero"></path><path stroke="#000000" stroke-width="3.0" stroke-linejoin="round" stroke-linecap="butt" d="m140.39276 67.99788l3.0028229 -0.34451294c2.6592865 -0.30828094 5.4249573 -0.634964 8.291153 -0.9783859c11.464752 -1.3736725 24.537903 -3.0152245 38.84491 -4.818836c28.614029 -3.607212 62.163498 -7.8626595 97.65228 -11.9198265c70.97754 -8.114338 149.71222 -15.435558 212.23465 -15.191593c125.04498 0.48792648 310.2859 31.724537 372.34308 38.069447" fill-rule="evenodd"></path><path fill="#000000" stroke="#000000" stroke-width="3.0" stroke-linecap="butt" d="m139.87282 63.070038l-13.019196 6.356369l14.059082 3.499321z" fill-rule="evenodd"></path><path fill="#000000" fill-opacity="0.0" d="m289.7546 0l382.1102 0l0 48.0l-382.1102 0z" fill-rule="nonzero"></path><path fill="#000000" d="m324.5345 20.654373l-2.53125 0.28125q-0.09375 -0.78125 -0.484375 -1.15625q-0.375 -0.375 -1.0 -0.375q-0.828125 0 -1.40625 0.75q-0.5625 0.734375 -0.71875 3.078125q0.984375 -1.140625 2.421875 -1.140625q1.640625 0 2.796875 1.25q1.171875 1.234375 1.171875 3.203125q0 2.078125 -1.234375 3.34375q-1.21875 1.265625 -3.140625 1.265625q-2.0625 0 -3.390625 -1.59375q-1.3125 -1.609375 -1.3125 -5.25q0 -3.75 1.375 -5.390625q1.390625 -1.65625 3.59375 -1.65625q1.546875 0 2.5625 0.875q1.015625 0.859375 1.296875 2.515625zm-5.90625 5.6875q0 1.265625 0.578125 1.953125q0.59375 0.6875 1.34375 0.6875q0.71875 0 1.203125 -0.5625q0.484375 -0.5625 0.484375 -1.84375q0 -1.328125 -0.53125 -1.9375q-0.515625 -0.625 -1.296875 -0.625q-0.75 0 -1.265625 0.59375q-0.515625 0.578125 -0.515625 1.734375zm8.000702 4.578125l0 -2.609375l2.609375 0l0 2.609375l-2.609375 0zm9.694733 -4.421875l2.671875 -0.265625q0.234375 1.34375 0.96875 1.984375q0.75 0.625 2.0 0.625q1.328125 0 2.0 -0.5625q0.671875 -0.5625 0.671875 -1.3125q0 -0.484375 -0.28125 -0.8125q-0.28125 -0.34375 -0.984375 -0.59375q-0.484375 -0.171875 -2.203125 -0.59375q-2.203125 -0.546875 -3.09375 -1.34375q-1.265625 -1.125 -1.265625 -2.734375q0 -1.046875 0.59375 -1.953125q0.59375 -0.90625 1.703125 -1.375q1.109375 -0.46875 2.671875 -0.46875q2.5625 0 3.859375 1.125q1.296875 1.109375 1.359375 2.984375l-2.75 0.125q-0.171875 -1.046875 -0.75 -1.5q-0.578125 -0.46875 -1.75 -0.46875q-1.1875 0 -1.875 0.5q-0.4375 0.3125 -0.4375 0.84375q0 0.484375 0.421875 0.828125q0.515625 0.421875 2.515625 0.90625q2.0 0.46875 2.953125 0.984375q0.96875 0.5 1.515625 1.375q0.546875 0.875 0.546875 2.15625q0 1.171875 -0.65625 2.203125q-0.640625 1.015625 -1.828125 1.515625q-1.1875 0.484375 -2.96875 0.484375q-2.578125 0 -3.96875 -1.1875q-1.375 -1.1875 -1.640625 -3.46875zm17.631073 -5.4375l0 2.078125l-1.78125 0l0 3.984375q0 1.203125 0.046875 1.40625q0.0625 0.1875 0.234375 0.328125q0.1875 0.125 0.453125 0.125q0.359375 0 1.046875 -0.25l0.21875 2.015625q-0.90625 0.390625 -2.0625 0.390625q-0.703125 0 -1.265625 -0.234375q-0.5625 -0.234375 -0.828125 -0.609375q-0.265625 -0.375 -0.375 -1.015625q-0.078125 -0.453125 -0.078125 -1.84375l0 -4.296875l-1.203125 0l0 -2.078125l1.203125 0l0 -1.953125l2.609375 -1.515625l0 3.46875l1.78125 0zm3.650177 3.015625l-2.359375 -0.4375q0.390625 -1.421875 1.359375 -2.109375q0.984375 -0.6875 2.90625 -0.6875q1.734375 0 2.59375 0.421875q0.859375 0.40625 1.203125 1.046875q0.34375 0.625 0.34375 2.328125l-0.03125 3.046875q0 1.296875 0.125 1.921875q0.125 0.609375 0.46875 1.3125l-2.578125 0q-0.09375 -0.265625 -0.25 -0.765625q-0.0625 -0.234375 -0.09375 -0.3125q-0.65625 0.65625 -1.421875 0.984375q-0.765625 0.3125 -1.625 0.3125q-1.515625 0 -2.40625 -0.8125q-0.875 -0.828125 -0.875 -2.09375q0 -0.84375 0.390625 -1.484375q0.40625 -0.65625 1.125 -1.0q0.71875 -0.359375 2.078125 -0.625q1.828125 -0.328125 2.53125 -0.625l0 -0.265625q0 -0.75 -0.375 -1.0625q-0.359375 -0.328125 -1.390625 -0.328125q-0.703125 0 -1.09375 0.28125q-0.390625 0.265625 -0.625 0.953125zm3.484375 2.109375q-0.5 0.171875 -1.59375 0.40625q-1.078125 0.234375 -1.40625 0.453125q-0.515625 0.359375 -0.515625 0.921875q0 0.546875 0.40625 0.953125q0.40625 0.390625 1.046875 0.390625q0.703125 0 1.34375 -0.46875q0.46875 -0.359375 0.625 -0.859375q0.09375 -0.34375 0.09375 -1.28125l0 -0.515625zm7.4382324 4.734375l-2.609375 0l0 -9.859375l2.421875 0l0 1.40625q0.625 -0.984375 1.109375 -1.296875q0.5 -0.328125 1.140625 -0.328125q0.890625 0 1.71875 0.5l-0.8125 2.265625q-0.65625 -0.421875 -1.21875 -0.421875q-0.546875 0 -0.9375 0.296875q-0.375 0.296875 -0.59375 1.09375q-0.21875 0.78125 -0.21875 3.296875l0 3.046875zm9.275879 -9.859375l0 2.078125l-1.78125 0l0 3.984375q0 1.203125 0.046875 1.40625q0.0625 0.1875 0.234375 0.328125q0.1875 0.125 0.453125 0.125q0.359375 0 1.046875 -0.25l0.21875 2.015625q-0.90625 0.390625 -2.0625 0.390625q-0.703125 0 -1.265625 -0.234375q-0.5625 -0.234375 -0.828125 -0.609375q-0.265625 -0.375 -0.375 -1.015625q-0.078125 -0.453125 -0.078125 -1.84375l0 -4.296875l-1.203125 0l0 -2.078125l1.203125 0l0 -1.953125l2.609375 -1.515625l0 3.46875l1.78125 0zm6.208496 5.4375l2.671875 -0.265625q0.234375 1.34375 0.96875 1.984375q0.75 0.625 2.0 0.625q1.328125 0 2.0 -0.5625q0.671875 -0.5625 0.671875 -1.3125q0 -0.484375 -0.28125 -0.8125q-0.28125 -0.34375 -0.984375 -0.59375q-0.484375 -0.171875 -2.203125 -0.59375q-2.203125 -0.546875 -3.09375 -1.34375q-1.265625 -1.125 -1.265625 -2.734375q0 -1.046875 0.59375 -1.953125q0.59375 -0.90625 1.703125 -1.375q1.109375 -0.46875 2.671875 -0.46875q2.5625 0 3.859375 1.125q1.296875 1.109375 1.359375 2.984375l-2.75 0.125q-0.171875 -1.046875 -0.75 -1.5q-0.578125 -0.46875 -1.75 -0.46875q-1.1875 0 -1.875 0.5q-0.4375 0.3125 -0.4375 0.84375q0 0.484375 0.421875 0.828125q0.515625 0.421875 2.515625 0.90625q2.0 0.46875 2.953125 0.984375q0.96875 0.5 1.515625 1.375q0.546875 0.875 0.546875 2.15625q0 1.171875 -0.65625 2.203125q-0.640625 1.015625 -1.828125 1.515625q-1.1875 0.484375 -2.96875 0.484375q-2.578125 0 -3.96875 -1.1875q-1.375 -1.1875 -1.640625 -3.46875zm18.818573 1.28125l2.609375 0.4375q-0.5 1.4375 -1.59375 2.1875q-1.078125 0.734375 -2.703125 0.734375q-2.5625 0 -3.796875 -1.671875q-0.96875 -1.34375 -0.96875 -3.40625q0 -2.4375 1.265625 -3.828125q1.28125 -1.390625 3.25 -1.390625q2.1875 0 3.453125 1.453125q1.28125 1.453125 1.234375 4.453125l-6.53125 0q0.015625 1.15625 0.625 1.8125q0.609375 0.640625 1.5 0.640625q0.609375 0 1.03125 -0.328125q0.421875 -0.34375 0.625 -1.09375zm0.15625 -2.625q-0.03125 -1.140625 -0.59375 -1.71875q-0.546875 -0.59375 -1.34375 -0.59375q-0.859375 0 -1.40625 0.625q-0.5625 0.609375 -0.546875 1.6875l3.890625 0zm7.016327 5.765625l-2.609375 0l0 -9.859375l2.421875 0l0 1.40625q0.625 -0.984375 1.109375 -1.296875q0.5 -0.328125 1.140625 -0.328125q0.890625 0 1.71875 0.5l-0.8125 2.265625q-0.65625 -0.421875 -1.21875 -0.421875q-0.546875 0 -0.9375 0.296875q-0.375 0.296875 -0.59375 1.09375q-0.21875 0.78125 -0.21875 3.296875l0 3.046875zm7.4790344 0l-3.96875 -9.859375l2.734375 0l1.84375 5.03125l0.546875 1.6875q0.21875 -0.640625 0.265625 -0.84375q0.125 -0.421875 0.28125 -0.84375l1.875 -5.03125l2.671875 0l-3.90625 9.859375l-2.34375 0zm7.656952 -11.1875l0 -2.40625l2.609375 0l0 2.40625l-2.609375 0zm0 11.1875l0 -9.859375l2.609375 0l0 9.859375l-2.609375 0zm13.777069 -6.9375l-2.5625 0.46875q-0.140625 -0.78125 -0.59375 -1.171875q-0.453125 -0.390625 -1.1875 -0.390625q-0.984375 0 -1.5625 0.671875q-0.578125 0.671875 -0.578125 2.25q0 1.765625 0.578125 2.484375q0.59375 0.71875 1.59375 0.71875q0.75 0 1.21875 -0.421875q0.46875 -0.421875 0.671875 -1.453125l2.546875 0.4375q-0.390625 1.765625 -1.53125 2.671875q-1.125 0.890625 -3.03125 0.890625q-2.15625 0 -3.453125 -1.359375q-1.28125 -1.359375 -1.28125 -3.78125q0 -2.4375 1.296875 -3.796875q1.296875 -1.359375 3.484375 -1.359375q1.796875 0 2.859375 0.78125q1.0625 0.765625 1.53125 2.359375zm7.485077 3.796875l2.609375 0.4375q-0.5 1.4375 -1.59375 2.1875q-1.078125 0.734375 -2.703125 0.734375q-2.5625 0 -3.796875 -1.671875q-0.96875 -1.34375 -0.96875 -3.40625q0 -2.4375 1.265625 -3.828125q1.28125 -1.390625 3.25 -1.390625q2.1875 0 3.453125 1.453125q1.28125 1.453125 1.234375 4.453125l-6.53125 0q0.015625 1.15625 0.625 1.8125q0.609375 0.640625 1.5 0.640625q0.609375 0 1.03125 -0.328125q0.421875 -0.34375 0.625 -1.09375zm0.15625 -2.625q-0.03125 -1.140625 -0.59375 -1.71875q-0.546875 -0.59375 -1.34375 -0.59375q-0.859375 0 -1.40625 0.625q-0.5625 0.609375 -0.546875 1.6875l3.890625 0zm8.559021 -4.09375l1.453125 0l0 -0.734375q0 -1.25 0.265625 -1.859375q0.265625 -0.609375 0.96875 -0.984375q0.71875 -0.390625 1.796875 -0.390625q1.109375 0 2.1875 0.328125l-0.359375 1.8125q-0.625 -0.140625 -1.203125 -0.140625q-0.5625 0 -0.8125 0.265625q-0.234375 0.265625 -0.234375 1.015625l0 0.6875l1.9375 0l0 2.0625l-1.9375 0l0 7.796875l-2.609375 0l0 -7.796875l-1.453125 0l0 -2.0625zm6.759552 4.796875q0 -1.296875 0.640625 -2.515625q0.640625 -1.21875 1.8125 -1.859375q1.171875 -0.640625 2.609375 -0.640625q2.25 0 3.671875 1.453125q1.421875 1.453125 1.421875 3.671875q0 2.234375 -1.4375 3.703125q-1.4375 1.46875 -3.625 1.46875q-1.359375 0 -2.59375 -0.609375q-1.21875 -0.609375 -1.859375 -1.796875q-0.640625 -1.1875 -0.640625 -2.875zm2.671875 0.140625q0 1.46875 0.6875 2.25q0.703125 0.765625 1.71875 0.765625q1.015625 0 1.703125 -0.765625q0.703125 -0.78125 0.703125 -2.265625q0 -1.453125 -0.703125 -2.234375q-0.6875 -0.78125 -1.703125 -0.78125q-1.015625 0 -1.71875 0.78125q-0.6875 0.78125 -0.6875 2.25zm11.817871 4.921875l-2.609375 0l0 -9.859375l2.421875 0l0 1.40625q0.625 -0.984375 1.109375 -1.296875q0.5 -0.328125 1.140625 -0.328125q0.890625 0 1.71875 0.5l-0.8125 2.265625q-0.65625 -0.421875 -1.21875 -0.421875q-0.546875 0 -0.9375 0.296875q-0.375 0.296875 -0.59375 1.09375q-0.21875 0.78125 -0.21875 3.296875l0 3.046875zm9.974823 0l0 -13.59375l5.78125 0q2.1875 0 3.171875 0.359375q0.984375 0.359375 1.578125 1.296875q0.59375 0.9375 0.59375 2.15625q0 1.53125 -0.90625 2.53125q-0.890625 0.984375 -2.6875 1.25q0.890625 0.515625 1.46875 1.140625q0.578125 0.625 1.5625 2.203125l1.671875 2.65625l-3.296875 0l-1.984375 -2.953125q-1.046875 -1.59375 -1.4375 -2.0q-0.390625 -0.421875 -0.828125 -0.5625q-0.4375 -0.15625 -1.390625 -0.15625l-0.546875 0l0 5.671875l-2.75 0zm2.75 -7.84375l2.03125 0q1.96875 0 2.453125 -0.171875q0.5 -0.171875 0.78125 -0.578125q0.28125 -0.40625 0.28125 -1.015625q0 -0.6875 -0.375 -1.109375q-0.359375 -0.421875 -1.03125 -0.53125q-0.328125 -0.046875 -2.0 -0.046875l-2.140625 0l0 3.453125zm16.394806 4.703125l2.609375 0.4375q-0.5 1.4375 -1.59375 2.1875q-1.078125 0.734375 -2.703125 0.734375q-2.5625 0 -3.796875 -1.671875q-0.96875 -1.34375 -0.96875 -3.40625q0 -2.4375 1.265625 -3.828125q1.28125 -1.390625 3.25 -1.390625q2.1875 0 3.453125 1.453125q1.28125 1.453125 1.234375 4.453125l-6.53125 0q0.015625 1.15625 0.625 1.8125q0.609375 0.640625 1.5 0.640625q0.609375 0 1.03125 -0.328125q0.421875 -0.34375 0.625 -1.09375zm0.15625 -2.625q-0.03125 -1.140625 -0.59375 -1.71875q-0.546875 -0.59375 -1.34375 -0.59375q-0.859375 0 -1.40625 0.625q-0.5625 0.609375 -0.546875 1.6875l3.890625 0zm3.6101074 2.953125l2.609375 -0.390625q0.17184448 0.75 0.6718445 1.15625q0.515625 0.390625 1.4375 0.390625q1.0 0 1.515625 -0.375q0.34375 -0.265625 0.34375 -0.703125q0 -0.296875 -0.1875 -0.484375q-0.1875 -0.1875 -0.875 -0.34375q-3.1405945 -0.703125 -3.9999695 -1.265625q-1.15625 -0.796875 -1.15625 -2.21875q0 -1.28125 1.0 -2.15625q1.015625 -0.875 3.1405945 -0.875q2.03125 0 3.0 0.65625q0.984375 0.65625 1.359375 1.953125l-2.453125 0.453125q-0.15625 -0.578125 -0.609375 -0.875q-0.4375 -0.3125 -1.25 -0.3125q-1.03125 0 -1.46875 0.296875q-0.296875 0.203125 -0.296875 0.515625q0 0.28125 0.25 0.484375q0.359375 0.25 2.4375 0.734375q2.078125 0.46875 2.90625 1.15625q0.828125 0.6875 0.828125 1.9375q0 1.359375 -1.140625 2.328125q-1.125 0.96875 -3.34375 0.96875q-2.0155945 0 -3.1874695 -0.8125q-1.171875 -0.8125 -1.53125 -2.21875zm17.766327 2.8125l0 -1.46875q-0.53125 0.78125 -1.40625 1.234375q-0.875 0.453125 -1.859375 0.453125q-0.984375 0 -1.78125 -0.4375q-0.78125 -0.4375 -1.140625 -1.21875q-0.34375 -0.796875 -0.34375 -2.1875l0 -6.234375l2.609375 0l0 4.53125q0 2.078125 0.140625 2.546875q0.140625 0.46875 0.515625 0.75q0.390625 0.265625 0.96875 0.265625q0.671875 0 1.203125 -0.359375q0.53125 -0.375 0.71875 -0.90625q0.1875 -0.546875 0.1875 -2.671875l0 -4.15625l2.609375 0l0 9.859375l-2.421875 0zm4.724121 -9.859375l2.40625 0l0 1.359375q1.28125 -1.578125 3.0625 -1.578125q0.953125 0 1.640625 0.390625q0.703125 0.390625 1.140625 1.1875q0.65625 -0.796875 1.40625 -1.1875q0.75 -0.390625 1.609375 -0.390625q1.078125 0 1.828125 0.453125q0.75 0.4375 1.125 1.28125q0.265625 0.640625 0.265625 2.046875l0 6.296875l-2.609375 0l0 -5.625q0 -1.46875 -0.265625 -1.90625q-0.359375 -0.546875 -1.109375 -0.546875q-0.546875 0 -1.03125 0.34375q-0.484375 0.328125 -0.703125 0.96875q-0.203125 0.640625 -0.203125 2.03125l0 4.734375l-2.609375 0l0 -5.40625q0 -1.4375 -0.140625 -1.84375q-0.140625 -0.421875 -0.4375 -0.625q-0.28125 -0.203125 -0.78125 -0.203125q-0.609375 0 -1.09375 0.328125q-0.484375 0.3125 -0.6875 0.9375q-0.203125 0.609375 -0.203125 2.03125l0 4.78125l-2.609375 0l0 -9.859375zm22.479004 6.71875l2.609375 0.4375q-0.5 1.4375 -1.59375 2.1875q-1.078125 0.734375 -2.703125 0.734375q-2.5625 0 -3.796875 -1.671875q-0.96875 -1.34375 -0.96875 -3.40625q0 -2.4375 1.265625 -3.828125q1.28125 -1.390625 3.25 -1.390625q2.1875 0 3.453125 1.453125q1.28125 1.453125 1.234375 4.453125l-6.53125 0q0.015625 1.15625 0.625 1.8125q0.609375 0.640625 1.5 0.640625q0.609375 0 1.03125 -0.328125q0.421875 -0.34375 0.625 -1.09375zm0.15625 -2.625q-0.03125 -1.140625 -0.59375 -1.71875q-0.546875 -0.59375 -1.34375 -0.59375q-0.859375 0 -1.40625 0.625q-0.5625 0.609375 -0.546875 1.6875l3.890625 0zm3.1257324 6.0l3.375 -14.0625l1.953125 0l-3.40625 14.0625l-1.921875 0zm6.6051636 -0.234375l0 -13.59375l5.78125 0q2.1875 0 3.171875 0.359375q0.984375 0.359375 1.578125 1.296875q0.59375 0.9375 0.59375 2.15625q0 1.53125 -0.90625 2.53125q-0.890625 0.984375 -2.6875 1.25q0.890625 0.515625 1.46875 1.140625q0.578125 0.625 1.5625 2.203125l1.671875 2.65625l-3.296875 0l-1.984375 -2.953125q-1.046875 -1.59375 -1.4375 -2.0q-0.390625 -0.421875 -0.828125 -0.5625q-0.4375 -0.15625 -1.390625 -0.15625l-0.546875 0l0 5.671875l-2.75 0zm2.75 -7.84375l2.03125 0q1.96875 0 2.453125 -0.171875q0.5 -0.171875 0.78125 -0.578125q0.28125 -0.40625 0.28125 -1.015625q0 -0.6875 -0.375 -1.109375q-0.359375 -0.421875 -1.03125 -0.53125q-0.328125 -0.046875 -2.0 -0.046875l-2.140625 0l0 3.453125zm16.394836 4.703125l2.609375 0.4375q-0.5 1.4375 -1.59375 2.1875q-1.078125 0.734375 -2.703125 0.734375q-2.5625 0 -3.796875 -1.671875q-0.96875 -1.34375 -0.96875 -3.40625q0 -2.4375 1.265625 -3.828125q1.28125 -1.390625 3.25 -1.390625q2.1875 0 3.453125 1.453125q1.28125 1.453125 1.234375 4.453125l-6.53125 0q0.015625 1.15625 0.625 1.8125q0.609375 0.640625 1.5 0.640625q0.609375 0 1.03125 -0.328125q0.421875 -0.34375 0.625 -1.09375zm0.15625 -2.625q-0.03125 -1.140625 -0.59375 -1.71875q-0.546875 -0.59375 -1.34375 -0.59375q-0.859375 0 -1.40625 0.625q-0.5625 0.609375 -0.546875 1.6875l3.890625 0zm13.110107 -1.171875l-2.5625 0.46875q-0.140625 -0.78125 -0.59375 -1.171875q-0.453125 -0.390625 -1.1875 -0.390625q-0.984375 0 -1.5625 0.671875q-0.578125 0.671875 -0.578125 2.25q0 1.765625 0.578125 2.484375q0.59375 0.71875 1.59375 0.71875q0.75 0 1.21875 -0.421875q0.46875 -0.421875 0.671875 -1.453125l2.546875 0.4375q-0.390625 1.765625 -1.53125 2.671875q-1.125 0.890625 -3.03125 0.890625q-2.15625 0 -3.453125 -1.359375q-1.28125 -1.359375 -1.28125 -3.78125q0 -2.4375 1.296875 -3.796875q1.296875 -1.359375 3.484375 -1.359375q1.796875 0 2.859375 0.78125q1.0625 0.765625 1.53125 2.359375zm1.1882324 1.875q0 -1.296875 0.640625 -2.515625q0.640625 -1.21875 1.8125 -1.859375q1.171875 -0.640625 2.609375 -0.640625q2.25 0 3.671875 1.453125q1.421875 1.453125 1.421875 3.671875q0 2.234375 -1.4375 3.703125q-1.4375 1.46875 -3.625 1.46875q-1.359375 0 -2.59375 -0.609375q-1.21875 -0.609375 -1.859375 -1.796875q-0.640625 -1.1875 -0.640625 -2.875zm2.671875 0.140625q0 1.46875 0.6875 2.25q0.703125 0.765625 1.71875 0.765625q1.015625 0 1.703125 -0.765625q0.703125 -0.78125 0.703125 -2.265625q0 -1.453125 -0.703125 -2.234375q-0.6875 -0.78125 -1.703125 -0.78125q-1.015625 0 -1.71875 0.78125q-0.6875 0.78125 -0.6875 2.25zm12.036621 4.921875l-3.96875 -9.859375l2.734375 0l1.84375 5.03125l0.546875 1.6875q0.21875 -0.640625 0.265625 -0.84375q0.125 -0.421875 0.28125 -0.84375l1.875 -5.03125l2.671875 0l-3.90625 9.859375l-2.34375 0zm13.360107 -3.140625l2.609375 0.4375q-0.5 1.4375 -1.59375 2.1875q-1.078125 0.734375 -2.703125 0.734375q-2.5625 0 -3.796875 -1.671875q-0.96875 -1.34375 -0.96875 -3.40625q0 -2.4375 1.265625 -3.828125q1.28125 -1.390625 3.25 -1.390625q2.1875 0 3.453125 1.453125q1.28125 1.453125 1.234375 4.453125l-6.53125 0q0.015625 1.15625 0.625 1.8125q0.609375 0.640625 1.5 0.640625q0.609375 0 1.03125 -0.328125q0.421875 -0.34375 0.625 -1.09375zm0.15625 -2.625q-0.03125 -1.140625 -0.59375 -1.71875q-0.546875 -0.59375 -1.34375 -0.59375q-0.859375 0 -1.40625 0.625q-0.5625 0.609375 -0.546875 1.6875l3.890625 0zm7.0163574 5.765625l-2.609375 0l0 -9.859375l2.421875 0l0 1.40625q0.625 -0.984375 1.109375 -1.296875q0.5 -0.328125 1.140625 -0.328125q0.890625 0 1.71875 0.5l-0.8125 2.265625q-0.65625 -0.421875 -1.21875 -0.421875q-0.546875 0 -0.9375 0.296875q-0.375 0.296875 -0.59375 1.09375q-0.21875 0.78125 -0.21875 3.296875l0 3.046875zm3.525879 -9.859375l2.78125 0l2.359375 7.0l2.296875 -7.0l2.703125 0l-3.484375 9.484375l-0.625 1.71875q-0.34375 0.859375 -0.65625 1.3125q-0.296875 0.46875 -0.703125 0.75q-0.40625 0.28125 -1.0 0.4375q-0.59375 0.15625 -1.328125 0.15625q-0.75 0 -1.46875 -0.15625l-0.234375 -2.046875q0.609375 0.125 1.09375 0.125q0.921875 0 1.34375 -0.53125q0.4375 -0.53125 0.671875 -1.359375l-3.75 -9.890625z" fill-rule="nonzero"></path><path fill="#d5a6bd" d="m809.2559 71.00525l120.66138 0l0 71.65355l-120.66138 0z" fill-rule="nonzero"></path><path stroke="#000000" stroke-width="4.0" stroke-linejoin="round" stroke-linecap="butt" d="m809.2559 71.00525l120.66138 0l0 71.65355l-120.66138 0z" fill-rule="nonzero"></path><path fill="#000000" d="m836.6497 97.75202l2.671875 0.84375q-0.609375 2.21875 -2.046875 3.3125q-1.421875 1.078125 -3.609375 1.078125q-2.703125 0 -4.453125 -1.84375q-1.734375 -1.859375 -1.734375 -5.078125q0 -3.390625 1.75 -5.265625q1.75 -1.875 4.609375 -1.875q2.5 0 4.046875 1.46875q0.9375 0.875 1.390625 2.5l-2.71875 0.65625q-0.234375 -1.0625 -1.0 -1.671875q-0.765625 -0.609375 -1.859375 -0.609375q-1.515625 0 -2.453125 1.09375q-0.9375 1.078125 -0.9375 3.5q0 2.578125 0.921875 3.6875q0.921875 1.09375 2.40625 1.09375q1.109375 0 1.890625 -0.6875q0.78125 -0.703125 1.125 -2.203125zm4.8010254 5.0l0 -13.59375l2.671875 0l5.578125 9.078125l0 -9.078125l2.546875 0l0 13.59375l-2.765625 0l-5.46875 -8.875l0 8.875l-2.5625 0zm13.426086 -13.59375l2.75 0l0 7.359375q0 1.75 0.109375 2.265625q0.171875 0.84375 0.828125 1.359375q0.671875 0.5 1.8125 0.5q1.171875 0 1.765625 -0.484375q0.59375 -0.484375 0.71875 -1.171875q0.125 -0.703125 0.125 -2.3125l0 -7.515625l2.734375 0l0 7.140625q0 2.4375 -0.21875 3.453125q-0.21875 1.015625 -0.828125 1.71875q-0.59375 0.6875 -1.59375 1.109375q-1.0 0.40625 -2.609375 0.40625q-1.953125 0 -2.96875 -0.453125q-1.0 -0.453125 -1.59375 -1.171875q-0.578125 -0.71875 -0.75 -1.5q-0.28125 -1.171875 -0.28125 -3.453125l0 -7.25zm18.671875 13.59375l0 -13.59375l4.421875 0q2.5 0 3.265625 0.203125q1.15625 0.296875 1.9375 1.328125q0.796875 1.015625 0.796875 2.640625q0 1.25 -0.453125 2.109375q-0.453125 0.859375 -1.15625 1.34375q-0.703125 0.484375 -1.421875 0.640625q-0.984375 0.203125 -2.84375 0.203125l-1.796875 0l0 5.125l-2.75 0zm2.75 -11.296875l0 3.859375l1.5 0q1.625 0 2.171875 -0.21875q0.546875 -0.21875 0.859375 -0.671875q0.3125 -0.453125 0.3125 -1.046875q0 -0.75 -0.4375 -1.234375q-0.4375 -0.484375 -1.09375 -0.59375q-0.5 -0.09375 -1.984375 -0.09375l-1.328125 0zm9.0842285 6.234375q0 -1.296875 0.640625 -2.515625q0.640625 -1.21875 1.8125 -1.859375q1.171875 -0.640625 2.609375 -0.640625q2.25 0 3.671875 1.453125q1.421875 1.453125 1.421875 3.671875q0 2.234375 -1.4375 3.703125q-1.4375 1.46875 -3.625 1.46875q-1.359375 0 -2.59375 -0.609375q-1.21875 -0.609375 -1.859375 -1.796875q-0.640625 -1.1875 -0.640625 -2.875zm2.671875 0.140625q0 1.46875 0.6875 2.25q0.703125 0.765625 1.71875 0.765625q1.015625 0 1.703125 -0.765625q0.703125 -0.78125 0.703125 -2.265625q0 -1.453125 -0.703125 -2.234375q-0.6875 -0.78125 -1.703125 -0.78125q-1.015625 0 -1.71875 0.78125q-0.6875 0.78125 -0.6875 2.25zm8.41156 2.109375l2.609375 -0.390625q0.171875 0.75 0.671875 1.15625q0.515625 0.390625 1.4375 0.390625q1.0 0 1.515625 -0.375q0.34375 -0.265625 0.34375 -0.703125q0 -0.296875 -0.1875 -0.484375q-0.1875 -0.1875 -0.875 -0.34375q-3.140625 -0.703125 -4.0 -1.265625q-1.15625 -0.796875 -1.15625 -2.21875q0 -1.28125 1.0 -2.15625q1.015625 -0.875 3.140625 -0.875q2.03125 0 3.0 0.65625q0.984375 0.65625 1.359375 1.953125l-2.453125 0.453125q-0.15625 -0.578125 -0.609375 -0.875q-0.4375 -0.3125 -1.25 -0.3125q-1.03125 0 -1.46875 0.296875q-0.296875 0.203125 -0.296875 0.515625q0 0.28125 0.25 0.484375q0.359375 0.25 2.4375 0.734375q2.078125 0.46875 2.90625 1.15625q0.828125 0.6875 0.828125 1.9375q0 1.359375 -1.140625 2.328125q-1.125 0.96875 -3.34375 0.96875q-2.015625 0 -3.1875 -0.8125q-1.171875 -0.8125 -1.53125 -2.21875zm15.797607 -7.046875l0 2.078125l-1.78125 0l0 3.984375q0 1.203125 0.046875 1.40625q0.0625 0.1875 0.234375 0.328125q0.1875 0.125 0.453125 0.125q0.359375 0 1.046875 -0.25l0.21875 2.015625q-0.90625 0.390625 -2.0625 0.390625q-0.703125 0 -1.265625 -0.234375q-0.5625 -0.234375 -0.828125 -0.609375q-0.265625 -0.375 -0.375 -1.015625q-0.078125 -0.453125 -0.078125 -1.84375l0 -4.296875l-1.203125 0l0 -2.078125l1.203125 0l0 -1.953125l2.609375 -1.515625l0 3.46875l1.78125 0z" fill-rule="nonzero"></path><path fill="#000000" d="m835.70135 111.15827l2.75 0l0 7.359375q0 1.75 0.109375 2.265625q0.171875 0.84375 0.828125 1.359375q0.671875 0.5 1.8125 0.5q1.171875 0 1.765625 -0.484375q0.59375 -0.484375 0.71875 -1.171875q0.125 -0.703125 0.125 -2.3125l0 -7.515625l2.734375 0l0 7.140625q0 2.4375 -0.21875 3.453125q-0.21875 1.015625 -0.828125 1.71875q-0.59375 0.6875 -1.59375 1.109375q-1.0 0.40625 -2.609375 0.40625q-1.953125 0 -2.96875 -0.453125q-1.0 -0.453125 -1.59375 -1.171875q-0.578125 -0.71875 -0.75 -1.5q-0.28125 -1.171875 -0.28125 -3.453125l0 -7.25zm13.410461 3.734375l2.421875 0l0 1.453125q0.46875 -0.734375 1.28125 -1.203125q0.8125 -0.46875 1.796875 -0.46875q1.703125 0 2.90625 1.34375q1.203125 1.34375 1.203125 3.75q0 2.46875 -1.21875 3.84375q-1.203125 1.359375 -2.921875 1.359375q-0.8125 0 -1.484375 -0.3125q-0.65625 -0.328125 -1.390625 -1.125l0 4.9687576l-2.59375 0l0 -13.609383zm2.578125 4.765625q0 1.65625 0.65625 2.453125q0.65625 0.796875 1.59375 0.796875q0.921875 0 1.515625 -0.71875q0.609375 -0.734375 0.609375 -2.40625q0 -1.546875 -0.625 -2.296875q-0.625 -0.75 -1.53125 -0.75q-0.96875 0 -1.59375 0.734375q-0.625 0.734375 -0.625 2.1875zm17.927185 5.09375l-2.421875 0l0 -1.453125q-0.609375 0.84375 -1.4375 1.265625q-0.8125 0.40625 -1.640625 0.40625q-1.703125 0 -2.921875 -1.359375q-1.203125 -1.375 -1.203125 -3.828125q0 -2.5 1.171875 -3.796875q1.1875 -1.3125 2.984375 -1.3125q1.65625 0 2.859375 1.375l0 -4.890625l2.609375 0l0 13.59375zm-6.96875 -5.140625q0 1.578125 0.4375 2.28125q0.640625 1.015625 1.765625 1.015625q0.90625 0 1.53125 -0.765625q0.625 -0.765625 0.625 -2.28125q0 -1.703125 -0.609375 -2.4375q-0.609375 -0.75 -1.5625 -0.75q-0.9375 0 -1.5625 0.734375q-0.625 0.734375 -0.625 2.203125zm11.270996 -1.703125l-2.359375 -0.4375q0.390625 -1.421875 1.359375 -2.109375q0.984375 -0.6875 2.90625 -0.6875q1.734375 0 2.59375 0.421875q0.859375 0.40625 1.203125 1.046875q0.34375 0.625 0.34375 2.328125l-0.03125 3.046875q0 1.296875 0.125 1.921875q0.125 0.609375 0.46875 1.3125l-2.578125 0q-0.09375 -0.265625 -0.25 -0.765625q-0.0625 -0.234375 -0.09375 -0.3125q-0.65625 0.65625 -1.421875 0.984375q-0.765625 0.3125 -1.625 0.3125q-1.515625 0 -2.40625 -0.8125q-0.875 -0.828125 -0.875 -2.09375q0 -0.84375 0.390625 -1.484375q0.40625 -0.65625 1.125 -1.0q0.71875 -0.359375 2.078125 -0.625q1.828125 -0.328125 2.53125 -0.625l0 -0.265625q0 -0.75 -0.375 -1.0625q-0.359375 -0.328125 -1.390625 -0.328125q-0.703125 0 -1.09375 0.28125q-0.390625 0.265625 -0.625 0.953125zm3.484375 2.109375q-0.5 0.171875 -1.59375 0.40625q-1.078125 0.234375 -1.40625 0.453125q-0.515625 0.359375 -0.515625 0.921875q0 0.546875 0.40625 0.953125q0.40625 0.390625 1.046875 0.390625q0.703125 0 1.34375 -0.46875q0.46875 -0.359375 0.625 -0.859375q0.09375 -0.34375 0.09375 -1.28125l0 -0.515625zm9.453857 -5.125l0 2.078125l-1.78125 0l0 3.984375q0 1.203125 0.046875 1.40625q0.0625 0.1875 0.234375 0.328125q0.1875 0.125 0.453125 0.125q0.359375 0 1.046875 -0.25l0.21875 2.015625q-0.90625 0.390625 -2.0625 0.390625q-0.703125 0 -1.265625 -0.234375q-0.5625 -0.234375 -0.828125 -0.609375q-0.265625 -0.375 -0.375 -1.015625q-0.078125 -0.453125 -0.078125 -1.84375l0 -4.296875l-1.203125 0l0 -2.078125l1.203125 0l0 -1.953125l2.609375 -1.515625l0 3.46875l1.78125 0zm7.4001465 6.71875l2.609375 0.4375q-0.5 1.4375 -1.59375 2.1875q-1.078125 0.734375 -2.703125 0.734375q-2.5625 0 -3.796875 -1.671875q-0.96875 -1.34375 -0.96875 -3.40625q0 -2.4375 1.265625 -3.828125q1.28125 -1.390625 3.25 -1.390625q2.1875 0 3.453125 1.453125q1.28125 1.453125 1.234375 4.453125l-6.53125 0q0.015625 1.15625 0.625 1.8125q0.609375 0.640625 1.5 0.640625q0.609375 0 1.03125 -0.328125q0.421875 -0.34375 0.625 -1.09375zm0.15625 -2.625q-0.03125 -1.140625 -0.59375 -1.71875q-0.546875 -0.59375 -1.34375 -0.59375q-0.859375 0 -1.40625 0.625q-0.5625 0.609375 -0.546875 1.6875l3.890625 0zm7.0163574 5.765625l-2.609375 0l0 -9.859375l2.421875 0l0 1.40625q0.625 -0.984375 1.109375 -1.296875q0.5 -0.328125 1.140625 -0.328125q0.890625 0 1.71875 0.5l-0.8125 2.265625q-0.65625 -0.421875 -1.21875 -0.421875q-0.546875 0 -0.9375 0.296875q-0.375 0.296875 -0.59375 1.09375q-0.21875 0.78125 -0.21875 3.296875l0 3.046875z" fill-rule="nonzero"></path><path fill="#000000" fill-opacity="0.0" d="m779.6365 122.832016l29.606323 -16.0" fill-rule="nonzero"></path><path stroke="#000000" stroke-width="2.0" stroke-linejoin="round" stroke-linecap="butt" d="m779.6365 122.83202l19.049316 -10.294731" fill-rule="evenodd"></path><path fill="#000000" stroke="#000000" stroke-width="2.0" stroke-linecap="butt" d="m800.2564 115.443504l6.4141846 -7.22139l-9.55542 1.4089508z" fill-rule="evenodd"></path></g></svg>

